<?xml version="1.0" encoding="UTF-8" standalone="no"?>
<!DOCTYPE svg PUBLIC "-//W3C//DTD SVG 1.1//EN" "http://www.w3.org/Graphics/SVG/1.1/DTD/svg11.dtd">
<svg width="100%" height="100%" viewBox="0 0 1910 1041" version="1.1" xmlns="http://www.w3.org/2000/svg" xmlns:xlink="http://www.w3.org/1999/xlink" xml:space="preserve" xmlns:serif="http://www.serif.com/" style="fill-rule:evenodd;clip-rule:evenodd;stroke-linejoin:round;stroke-miterlimit:2;">
    <g transform="matrix(1,0,0,1,-317.308,-932.485)">
        <g transform="matrix(3.58067,0,0,3.58067,-5663.54,-3358.06)">
            <g transform="matrix(0.291835,0,0,0.291835,1567.6,938.98)">
                <path d="M1579.72,1046.85C1508.5,1118.06 1583.89,1275.53 1597.68,1243.35C1603.94,1228.75 1603.17,1036.02 1680.78,1067.06C1710.72,1079.03 1684.16,1103.18 1681.9,1105.23C1677.56,1109.18 1676.03,1138 1677.41,1138.92C1704.04,1156.68 1733.97,1125.02 1725.69,1155.76C1719.02,1180.55 1685.77,1242.93 1744.78,1239.98C1748.31,1239.8 1742.62,1230.13 1784.08,1219.77C1833.83,1207.33 1847.85,1165.41 1852.57,1162.5C1874.13,1149.24 1875.43,1151.92 1891.88,1132.18C1897.54,1125.38 1924.1,1125.44 1932.3,1078.29C1941.72,1024.14 2006.11,1041.07 2022.13,1022.14C2048.7,990.737 2064.24,1006.42 2082.76,969.367C2122.53,889.84 2130.75,879.27 2141.15,894.134C2173.92,940.949 2178.56,979.334 2179.53,987.339C2161.89,986.539 2162.99,985.952 2144.88,985.037C2136.9,1011.59 2141.8,1029.2 2116.45,1016.53C2099.69,1008.15 2130.12,1085.58 2082.76,1098.5C2028.28,1113.36 1971.12,1253.98 1985.07,1275.91C2002.78,1303.73 2020.85,1317.67 1988.44,1323.07C1977.4,1324.91 1964.29,1340.21 1962.62,1342.16C1941.51,1366.78 1967.58,1381.01 1970.48,1382.58C2012.34,1405.42 1971.63,1413.92 1969.35,1420.76C1962.91,1440.08 1974.45,1451.47 1970.48,1454.45C1970.44,1454.47 1954.77,1447.91 1940.16,1471.29C1910.13,1519.33 1898.27,1509.75 1871.66,1558.88C1861.19,1578.22 1830.83,1589.39 1846.96,1670.04C1852.34,1696.95 1899.72,1720.36 1906.47,1801.41C1911.78,1865.11 1854.44,1838.38 1849.21,1791.31C1846.83,1769.92 1839.36,1774.86 1816.68,1756.9C1818.5,1716.81 1817.96,1716.27 1815.52,1713.83C1815.29,1713.6 1815.53,1713.77 1760.5,1684.64C1730.06,1691.16 1721.13,1715.28 1685.27,1691.37C1635.02,1657.88 1557.66,1696.75 1566.24,1739.66C1570.67,1761.78 1539.17,1754.79 1460.69,1735.17C1402.88,1720.71 1388.37,1737.29 1384.34,1741.9C1371.69,1756.36 1322.99,1769.88 1312.47,1801.41C1306.83,1818.35 1287.31,1806.18 1283.28,1838.47C1276.71,1890.98 1255.6,1895.83 1214.78,1863.17C1191.18,1844.29 1155.44,1833.04 1118.22,1792.43C1083.88,1754.97 1059.55,1772.27 1023.89,1730.67C1010,1714.46 944.899,1685.2 931.819,1684.64C871.69,1682.02 876.204,1709.72 826.269,1707.09C776.082,1704.45 780.28,1689.05 729.702,1681.27C721.473,1680 678.733,1653.74 642.118,1652.07C556.018,1648.16 544.741,1606.81 542.352,1598.05C481.394,1555.79 450.775,1495.35 454.598,1472.41C455.168,1468.99 455.568,1466.6 432.14,1435.36C393.512,1383.85 342.819,1344.61 353.381,1268.92C356.55,1246.2 379.853,1219.45 382.511,1195.08C388.194,1142.99 411.403,1083.92 415.08,1040.31C419.003,993.775 403.83,963.976 424.934,950.381C441.986,939.397 504.997,948.11 510.742,944.663C512.789,943.435 710.212,973.563 736.439,974.981C837.724,980.456 836.955,965.82 937.433,973.858C1023.22,980.721 1022.82,976.659 1108.11,965.998C1122.06,964.254 1212.02,1006.32 1307.98,972.735C1354.53,956.444 1352.33,986.233 1378.72,987.333C1411.06,988.68 1410.17,991.376 1442.23,997.789C1463.52,1035.66 1469,1030.58 1510.1,1045.72C1542.65,1057.72 1573.74,1047.12 1579.72,1046.85Z" style="fill:rgb(50,90,40);"/>
            </g>
        </g>
        <g transform="matrix(3.58067,0,0,3.58067,-5663.54,-3358.06)">
            <g transform="matrix(0.506153,0,0,0.506153,1325.26,-37.4267)">
                <path d="M1139.63,2961.76L1139.68,2964.41L1067.91,2918.82L1051.76,2505.26L1129.82,2506.14L1129.81,2505.67C1129.81,2505.67 1164.86,2504.24 1178.37,2505.1C1191.87,2505.96 1216.73,2500.79 1216.73,2500.79L1237.88,2493.62C1237.88,2493.62 1250.8,2504.01 1268.2,2508.36C1285.61,2512.71 1299.46,2510.82 1299.46,2510.82C1299.46,2510.82 1279.13,2523.48 1285.66,2534.36C1289.47,2540.7 1294.55,2543.79 1297.84,2545.22L1297.84,2545.13C1297.84,2545.13 1341.86,2536 1349.22,2534.73C1356.57,2533.46 1379.28,2533.84 1379.28,2533.84C1379.28,2533.84 1365.4,2542.52 1363.04,2549.71C1358.9,2562.32 1357.06,2576.51 1359.92,2589.89C1370.47,2639.19 1386.72,2656.31 1389.7,2659.1L1389.7,2658.78C1389.7,2658.78 1408.62,2661.66 1411.4,2627.59C1412.41,2615.18 1415.92,2576.57 1420.02,2567.55C1424.11,2558.52 1432.13,2553.28 1441.16,2553.56C1450.19,2553.84 1445.68,2564.14 1445.68,2564.14C1445.68,2564.14 1433.98,2590.31 1443.09,2595.11C1452.19,2599.9 1465.32,2589.65 1465.32,2589.65C1465.32,2589.65 1456.19,2625.56 1457.22,2636.03C1458.45,2648.56 1470.71,2646.97 1470.71,2646.97L1469.9,2902.9C1469.9,2902.9 1449.34,2890.8 1431.95,2890.5C1416.18,2890.23 1391.39,2899.33 1391.39,2899.33L1391.39,2899.12C1389.89,2900.06 1381.48,2905.31 1375.34,2909.97C1368.58,2915.1 1371.61,2925.6 1371.61,2925.6C1371.61,2925.6 1365.02,2926.92 1356.97,2928.9C1348.92,2930.89 1338.41,2921.33 1330.64,2919.37C1324.1,2917.71 1310.12,2920.25 1304.29,2921.45L1304.29,2921.92L1302.19,2921.89C1301.83,2921.97 1301.64,2922.01 1301.64,2922.01L1301.64,2921.88L1284.57,2921.64L1257.71,2942.62L1225.95,2958.57L1226.07,2964.51C1226.07,2964.51 1220.91,2966.23 1212.59,2977.55C1204.27,2988.86 1202.53,3006.75 1202.53,3006.75L1139.63,2961.76ZM1654.79,2577.15L1635.45,2597.34L1631.9,2609.79C1631.9,2609.79 1619.24,2629.36 1616.63,2639.67C1614.02,2649.99 1611.16,2655.53 1611.16,2655.53L1620.37,2681.51C1620.37,2681.51 1599.23,2694.5 1594.25,2706C1589.28,2717.49 1595.85,2715.9 1595.85,2715.9L1614.21,2737.12L1602.7,2751.23L1605.02,2760.2L1566.03,2803.55L1567.02,2588.09C1567.02,2588.09 1589.74,2570.35 1593.81,2561.2C1597.87,2552.05 1596.57,2543.67 1603.48,2538.87C1612.05,2532.92 1647.62,2523.41 1654.32,2521.66L1654.31,2521.36C1654.31,2521.36 1667.82,2514.8 1673.51,2509.84C1687.13,2497.96 1701.4,2448.83 1701.4,2448.83L1728.66,2482.64C1728.66,2482.64 1725.76,2488.09 1720.98,2490.43C1716.2,2492.76 1715.09,2483.98 1710.19,2489.98C1705.3,2495.99 1700.4,2508.78 1700.4,2508.78C1700.4,2508.78 1691.39,2508.67 1688.05,2515.35C1684.72,2522.02 1680.72,2554.21 1680.72,2554.21L1654.79,2577.39L1654.79,2577.15ZM1561.97,2940.77L1561.99,2940.22C1561.99,2940.22 1572.89,2955.15 1573.55,2958.16C1574.2,2961.16 1572.43,2981.98 1572.43,2981.98L1560.9,2974.07L1560.86,2975.16L1533.11,2934.57L1533.13,2919.25C1533.13,2919.25 1513.04,2892.38 1495.36,2892.88C1484.8,2893.18 1469.92,2900.28 1469.92,2900.28L1470.99,2646.85C1470.99,2646.85 1485.17,2648.78 1491.34,2645.24C1516.77,2630.68 1566.75,2588.32 1566.75,2588.32L1565.58,2803.23C1565.58,2803.23 1527.61,2841.13 1525.37,2867.6C1523.43,2890.33 1560.12,2938.36 1561.97,2940.77Z"/>
                <clipPath id="_clip1">
                    <path d="M1139.63,2961.76L1139.68,2964.41L1067.91,2918.82L1051.76,2505.26L1129.82,2506.14L1129.81,2505.67C1129.81,2505.67 1164.86,2504.24 1178.37,2505.1C1191.87,2505.96 1216.73,2500.79 1216.73,2500.79L1237.88,2493.62C1237.88,2493.62 1250.8,2504.01 1268.2,2508.36C1285.61,2512.71 1299.46,2510.82 1299.46,2510.82C1299.46,2510.82 1279.13,2523.48 1285.66,2534.36C1289.47,2540.7 1294.55,2543.79 1297.84,2545.22L1297.84,2545.13C1297.84,2545.13 1341.86,2536 1349.22,2534.73C1356.57,2533.46 1379.28,2533.84 1379.28,2533.84C1379.28,2533.84 1365.4,2542.52 1363.04,2549.71C1358.9,2562.32 1357.06,2576.51 1359.92,2589.89C1370.47,2639.19 1386.72,2656.31 1389.7,2659.1L1389.7,2658.78C1389.7,2658.78 1408.62,2661.66 1411.4,2627.59C1412.41,2615.18 1415.92,2576.57 1420.02,2567.55C1424.11,2558.52 1432.13,2553.28 1441.16,2553.56C1450.19,2553.84 1445.68,2564.14 1445.68,2564.14C1445.68,2564.14 1433.98,2590.31 1443.09,2595.11C1452.19,2599.9 1465.32,2589.65 1465.32,2589.65C1465.32,2589.65 1456.19,2625.56 1457.22,2636.03C1458.45,2648.56 1470.71,2646.97 1470.71,2646.97L1469.9,2902.9C1469.9,2902.9 1449.34,2890.8 1431.95,2890.5C1416.18,2890.23 1391.39,2899.33 1391.39,2899.33L1391.39,2899.12C1389.89,2900.06 1381.48,2905.31 1375.34,2909.97C1368.58,2915.1 1371.61,2925.6 1371.61,2925.6C1371.61,2925.6 1365.02,2926.92 1356.97,2928.9C1348.92,2930.89 1338.41,2921.33 1330.64,2919.37C1324.1,2917.71 1310.12,2920.25 1304.29,2921.45L1304.29,2921.92L1302.19,2921.89C1301.83,2921.97 1301.64,2922.01 1301.64,2922.01L1301.64,2921.88L1284.57,2921.64L1257.71,2942.62L1225.95,2958.57L1226.07,2964.51C1226.07,2964.51 1220.91,2966.23 1212.59,2977.55C1204.27,2988.86 1202.53,3006.75 1202.53,3006.75L1139.63,2961.76ZM1654.79,2577.15L1635.45,2597.34L1631.9,2609.79C1631.9,2609.79 1619.24,2629.36 1616.63,2639.67C1614.02,2649.99 1611.16,2655.53 1611.16,2655.53L1620.37,2681.51C1620.37,2681.51 1599.23,2694.5 1594.25,2706C1589.28,2717.49 1595.85,2715.9 1595.85,2715.9L1614.21,2737.12L1602.7,2751.23L1605.02,2760.2L1566.03,2803.55L1567.02,2588.09C1567.02,2588.09 1589.74,2570.35 1593.81,2561.2C1597.87,2552.05 1596.57,2543.67 1603.48,2538.87C1612.05,2532.92 1647.62,2523.41 1654.32,2521.66L1654.31,2521.36C1654.31,2521.36 1667.82,2514.8 1673.51,2509.84C1687.13,2497.96 1701.4,2448.83 1701.4,2448.83L1728.66,2482.64C1728.66,2482.64 1725.76,2488.09 1720.98,2490.43C1716.2,2492.76 1715.09,2483.98 1710.19,2489.98C1705.3,2495.99 1700.4,2508.78 1700.4,2508.78C1700.4,2508.78 1691.39,2508.67 1688.05,2515.35C1684.72,2522.02 1680.72,2554.21 1680.72,2554.21L1654.79,2577.39L1654.79,2577.15ZM1561.97,2940.77L1561.99,2940.22C1561.99,2940.22 1572.89,2955.15 1573.55,2958.16C1574.2,2961.16 1572.43,2981.98 1572.43,2981.98L1560.9,2974.07L1560.86,2975.16L1533.11,2934.57L1533.13,2919.25C1533.13,2919.25 1513.04,2892.38 1495.36,2892.88C1484.8,2893.18 1469.92,2900.28 1469.92,2900.28L1470.99,2646.85C1470.99,2646.85 1485.17,2648.78 1491.34,2645.24C1516.77,2630.68 1566.75,2588.32 1566.75,2588.32L1565.58,2803.23C1565.58,2803.23 1527.61,2841.13 1525.37,2867.6C1523.43,2890.33 1560.12,2938.36 1561.97,2940.77Z"/>
                </clipPath>
                <g clip-path="url(#_clip1)">
                    <g transform="matrix(1.69312,0,0,1.61333,-844.183,748.996)">
                        <rect x="1103.57" y="1116.27" width="385.102" height="46.077" style="fill:rgb(204,51,51);"/>
                    </g>
                    <g transform="matrix(1.69312,0,0,1.61333,-842.166,885.265)">
                        <rect x="1103.57" y="1116.27" width="385.102" height="46.077" style="fill:rgb(204,51,51);"/>
                    </g>
                    <g transform="matrix(1.69312,0,0,1.61333,-851.757,1035.81)">
                        <rect x="1103.57" y="1116.27" width="385.102" height="46.077" style="fill:rgb(204,51,51);"/>
                    </g>
                </g>
            </g>
        </g>
        <g transform="matrix(3.58067,0,0,3.58067,-5663.54,-3358.06)">
            <g transform="matrix(0.506153,0,0,0.506153,1325.24,-36.3627)">
                <path d="M1051.76,2505.26C1046.85,2503.72 756.681,2475.78 756.681,2475.78C756.681,2475.78 750.985,2491.93 742.336,2492.01C733.687,2492.09 721.475,2486.95 721.475,2486.95C721.475,2486.95 727.042,2518.13 724.71,2532.51C722.377,2546.9 702.66,2600.85 702.66,2600.85C702.66,2600.85 707.71,2621.51 706.064,2632.99C704.418,2644.48 695.205,2665.3 695.205,2665.3L710.554,2713.05L732.152,2734.61L730.446,2751.13L809.705,2852.96C809.705,2852.96 882.567,2870.8 899.588,2879.1C916.609,2887.41 940.36,2898.54 956.424,2897.77C972.488,2896.99 1013.58,2885.68 1017.1,2885.61C1020.62,2885.55 1067.43,2918.79 1067.43,2918.79C1067.43,2918.79 1068.57,2691.97 1062.46,2573.95C1060.51,2536.22 1054.17,2506.02 1051.76,2505.26Z" style="fill:rgb(50,90,40);"/>
                <clipPath id="_clip2">
                    <path d="M1051.76,2505.26C1046.85,2503.72 756.681,2475.78 756.681,2475.78C756.681,2475.78 750.985,2491.93 742.336,2492.01C733.687,2492.09 721.475,2486.95 721.475,2486.95C721.475,2486.95 727.042,2518.13 724.71,2532.51C722.377,2546.9 702.66,2600.85 702.66,2600.85C702.66,2600.85 707.71,2621.51 706.064,2632.99C704.418,2644.48 695.205,2665.3 695.205,2665.3L710.554,2713.05L732.152,2734.61L730.446,2751.13L809.705,2852.96C809.705,2852.96 882.567,2870.8 899.588,2879.1C916.609,2887.41 940.36,2898.54 956.424,2897.77C972.488,2896.99 1013.58,2885.68 1017.1,2885.61C1020.62,2885.55 1067.43,2918.79 1067.43,2918.79C1067.43,2918.79 1068.57,2691.97 1062.46,2573.95C1060.51,2536.22 1054.17,2506.02 1051.76,2505.26Z"/>
                </clipPath>
                <g clip-path="url(#_clip2)">
                    <g transform="matrix(1,0,0,1,-3.02856,-4.71906)">
                        <path d="M1059.28,2504.99C1054.37,2503.45 756.681,2475.78 756.681,2475.78C756.681,2475.78 750.985,2491.93 742.336,2492.01C733.687,2492.09 721.475,2486.95 721.475,2486.95C721.475,2486.95 727.042,2518.13 724.71,2532.51C722.377,2546.9 702.66,2600.85 702.66,2600.85C702.66,2600.85 707.71,2621.51 706.064,2632.99C704.418,2644.48 695.205,2665.3 695.205,2665.3L710.554,2713.05L732.152,2734.61L730.446,2751.13L812.372,2857.9C812.372,2857.9 882.065,2873.36 899.085,2881.67C916.106,2889.97 943.063,2903.11 959.127,2902.34C975.192,2901.57 1015.91,2890.38 1019.43,2890.32C1022.96,2890.25 1072.2,2920.81 1072.2,2920.81C1072.2,2920.81 1071.97,2683.7 1068.21,2568.11C1066.99,2530.35 1061.69,2505.74 1059.28,2504.99Z"/>
                    </g>
                </g>
            </g>
        </g>
        <g transform="matrix(3.58067,0,0,3.58067,-5663.54,-3358.06)">
            <g transform="matrix(1.36213,0,0,1.37579,960.944,181.708)">
                <path d="M672.218,786.514L676.639,800.119L690.944,800.119L679.371,808.527L683.792,822.133L672.218,813.724L660.645,822.133L665.066,808.527L653.492,800.119L667.798,800.119L672.218,786.514Z" style="fill:rgb(50,90,40);"/>
            </g>
        </g>
        <g transform="matrix(3.58067,0,0,3.58067,-5663.54,-3358.06)">
            <g id="Layer20" transform="matrix(0.158023,0.0281591,-0.0281591,0.158023,1585.02,1065.86)">
                <path d="M1743.12,1324.97C1741.67,1326.53 1740.29,1327.9 1739.02,1329.03C1685.88,1375.88 1682.85,1400.53 1681.97,1415.64C1680.76,1436.51 1691.95,1466.12 1699.95,1490.7C1705.59,1508.03 1700.28,1540.81 1696.21,1549.58C1690.14,1562.64 1667.9,1577.38 1667.9,1577.38C1667.9,1577.38 1671.24,1608.26 1671.61,1630.71C1672.04,1657.4 1671.95,1682.08 1666.19,1705.39C1664.37,1712.78 1644.27,1728.78 1619.21,1742.7C1611.56,1746.94 1580.83,1753.22 1551.98,1757.38C1522.73,1761.59 1495.41,1763.65 1495.41,1763.65C1495.41,1763.65 1498.71,1722.76 1501.97,1720C1507.98,1714.9 1517.23,1706.62 1523.7,1700.69L1445.88,1689.44C1445.88,1689.44 1433.19,1704.88 1408.25,1711.63C1398.68,1714.23 1373.02,1720.38 1353.44,1716.35C1335.72,1712.7 1313.08,1691.16 1313.08,1691.16C1313.08,1691.16 1290.88,1687.28 1285.89,1686.63C1280.9,1685.98 1262.6,1687.04 1262.6,1687.04L1266.91,1703.12L1242.77,1690.85C1242.77,1690.85 1220.83,1693.89 1210.75,1693.5C1203.16,1693.2 1192.41,1690.46 1183.88,1680.38C1178.64,1674.17 1175.59,1656.33 1174.44,1648.22C1161.68,1638.31 1065.68,1561.29 1032.97,1460.45C964.82,1250.37 1034.63,1124.35 1115.85,1031.48C1229.05,902.029 1408.92,866.37 1512.69,877.627C1616.47,888.883 1763.62,943.739 1839.39,1067.2C1875.64,1126.29 1898.09,1192.49 1903.62,1253.13C1909.66,1319.22 1903.92,1368.8 1889.04,1421.59C1856.19,1538.11 1781.07,1604.83 1781.07,1604.83C1781.07,1604.83 1780.94,1480.81 1773.65,1427.39C1770.31,1402.9 1745.69,1332.31 1743.12,1324.97ZM1286.26,1359.89C1294.15,1341.76 1304.28,1317.35 1312.19,1298.01C1307.78,1298.01 1299.88,1298.25 1296.09,1299.93C1290.68,1302.33 1282.76,1307.15 1278.56,1319.91C1275.12,1330.37 1275.07,1339.26 1278.2,1347.28C1281.69,1356.23 1286.26,1359.89 1286.26,1359.89ZM1185.05,1640.69C1184.72,1645.54 1184.51,1652.54 1185.49,1657.44C1188.1,1670.47 1191.98,1676.65 1204.55,1683.32C1217.12,1689.98 1263.02,1677.57 1285.11,1679.41C1300.24,1680.67 1336.17,1688.23 1368.48,1685.72C1385.33,1684.41 1425.12,1679.55 1442.62,1681.46C1460.11,1683.38 1531.8,1693.56 1531.8,1693.56L1531.65,1693.71C1537.38,1694.83 1593.41,1704.99 1619.74,1681.44C1632.18,1670.32 1640.74,1648.25 1629.75,1624.26C1628.33,1621.13 1625.4,1618.3 1621.74,1615.77C1611.47,1613.86 1595.67,1611.36 1581.1,1610.08C1529.21,1605.51 1474.09,1613.27 1457.81,1615.54C1438.79,1618.18 1393.15,1635.26 1357.11,1629.2C1347.04,1627.51 1303.29,1606.67 1291.04,1604.57C1276.53,1602.08 1221.76,1596.15 1200.68,1593.91C1197.83,1598.52 1193.73,1605.45 1191.87,1610.05C1186,1624.58 1185.12,1640.63 1185.12,1640.63L1185.05,1640.69ZM1213.16,1608.56C1217.3,1606.37 1268.14,1611.9 1281.54,1616.51C1294.95,1621.12 1356.76,1640.21 1373.54,1642.6C1397.94,1646.06 1454.36,1627.06 1493.51,1623.38C1528.83,1620.07 1579.04,1622.8 1596.35,1632.2C1614.94,1642.3 1607.36,1676.76 1560.62,1671.12C1512.42,1665.3 1465.62,1661.57 1425.66,1661.13C1407.49,1660.93 1343.63,1660.9 1320.76,1661.79C1302.62,1662.49 1264.82,1670.58 1240.87,1667.14C1216.92,1663.71 1214.01,1655.95 1212.07,1647.11C1209.35,1634.68 1211.43,1609.48 1213.16,1608.56ZM1789.96,1125.38C1789.61,1131.82 1788.76,1146.87 1787.74,1160.86C1790.15,1160.12 1793.5,1159.3 1797.09,1159.06C1805.88,1158.49 1816.36,1160.53 1820.69,1165.68C1829.36,1176 1829.31,1182.26 1829.16,1188.19C1828.95,1196.51 1815.35,1211.65 1813.29,1219.34C1810.31,1230.45 1821.93,1251.89 1821.47,1260.8C1821.01,1269.71 1816.18,1298.77 1802.06,1300.53C1788.43,1302.23 1773.75,1294.01 1766.44,1289.15L1766.3,1289.63C1765.45,1292.62 1763.3,1296.9 1760.46,1301.61C1760.46,1301.61 1771.14,1329.24 1787.26,1342.6C1805.23,1357.5 1829.32,1357.41 1844.83,1340.79C1863.35,1320.95 1855.71,1258.36 1858.29,1227.42C1859.38,1214.36 1875.47,1172.19 1868.51,1155.26C1862.9,1141.6 1856.55,1123.5 1835.85,1116C1819.35,1110.03 1790.13,1125.39 1790.13,1125.39L1789.96,1125.38ZM1773.47,1265.21C1779.4,1270.27 1787.74,1276.43 1793.32,1276.62C1801.36,1276.89 1807.33,1265.46 1804.88,1256.95C1801.77,1246.11 1794.3,1228.31 1794.98,1220.65C1796.43,1204.32 1807.29,1192.69 1803.58,1186.7C1799.45,1180.02 1790.69,1183.77 1785.22,1187.08C1784.45,1193.86 1782.73,1216.94 1780.79,1230.69C1779.11,1242.65 1776.23,1254.91 1773.47,1265.21ZM1451.45,1180.33C1450.88,1189.28 1448.74,1223.84 1448.71,1236.13C1448.65,1264.86 1434.65,1381.21 1422.02,1386.61C1407.74,1392.72 1365.86,1395.44 1354.53,1390.02C1343.2,1384.59 1341.93,1375.01 1343.16,1367.7C1344.39,1360.4 1391.78,1233.35 1395.17,1157.1C1397.26,1110.26 1397.45,1077.2 1389.18,1061.25C1377.83,1039.36 1351.87,1033.21 1332.44,1037.8C1303.87,1044.55 1292,1075.02 1292,1075.02L1290.93,1075.44C1296.84,1075.85 1302.52,1076.55 1308.05,1077.27C1326.11,1079.62 1359.41,1099.33 1367.51,1123.58C1374.12,1143.37 1372.8,1160.43 1363.1,1169.11C1349.14,1181.6 1327.8,1178.88 1327.8,1178.88C1327.8,1178.88 1318.47,1186.49 1305,1189.79C1290.85,1193.24 1227.46,1189.39 1205.91,1173.23C1204.37,1172.07 1203.29,1169.27 1203.84,1166.91C1205.62,1159.38 1215.7,1146.09 1231.24,1134.58C1241.65,1126.87 1254.48,1121.34 1257.93,1123.92C1266.36,1130.25 1265.73,1139.2 1270.41,1141.27C1273.07,1142.45 1283.8,1145.78 1290.97,1138.59C1297.13,1132.41 1294.05,1115.95 1301.64,1114.67C1308.55,1113.51 1324.11,1117.54 1333.03,1126.94C1342.5,1136.93 1348.62,1163.5 1348.62,1163.5C1348.62,1163.5 1361.85,1156.24 1359.8,1146.93C1357.76,1137.62 1348.29,1104.31 1314.85,1093.48C1288.02,1084.8 1277.14,1088.49 1262.53,1092.08C1243.99,1096.63 1212.59,1114.58 1204.6,1123.71C1196.9,1132.51 1191.46,1139.07 1188.87,1149.56C1185.33,1163.9 1196.76,1187.15 1196.76,1187.15C1196.76,1187.15 1193.75,1187.2 1191.55,1185.78C1189.97,1184.76 1189.34,1181.95 1188.08,1182.59C1184.06,1184.66 1173.76,1190.59 1172.65,1199.53C1171.54,1208.47 1182.87,1223.81 1195.01,1226.15C1210.25,1229.09 1251.23,1218.39 1260.85,1219.98C1270.47,1221.56 1323.14,1232.9 1331.63,1232.12C1339.6,1231.38 1358.01,1224.61 1359.9,1209.4C1360.49,1204.69 1346.89,1190.13 1346.89,1190.13L1360.39,1186.12C1360.39,1186.12 1371.36,1195.37 1372.94,1207.62C1373.61,1212.81 1370.56,1223.46 1362.24,1231.48C1359.26,1234.35 1354.11,1237.5 1348.69,1240.06L1337.89,1271.09C1337.89,1271.09 1299.18,1357.98 1291.47,1382.12C1288.04,1392.86 1286.04,1401.64 1292.61,1415.83C1297.4,1426.2 1305.64,1436.35 1318.68,1439.76C1324.22,1441.2 1364.01,1436.86 1377.95,1435.51C1391.58,1434.19 1415.08,1435.44 1421.93,1434.6C1438.89,1432.54 1468.08,1412.28 1473.19,1385.98C1473.8,1382.85 1475.24,1377.62 1475.77,1371.19C1477.79,1346.4 1475.83,1319.35 1475.83,1319.35L1486.64,1319.14C1486.64,1319.14 1489.56,1364.24 1490.03,1376.45C1490.25,1381.99 1489.35,1393.05 1489.35,1393.05C1499.12,1393.66 1547.89,1395.79 1559.27,1378.79C1564.65,1370.75 1554.38,1346.92 1539.52,1331.61C1512.14,1303.42 1475.56,1309.48 1475.56,1309.48L1474.55,1286.15C1474.55,1286.15 1502.52,1285.52 1538.02,1287.48C1552.69,1288.29 1592.21,1308.87 1622.19,1308.62C1643.57,1308.43 1667.82,1276.7 1680.96,1246.78C1698.19,1207.56 1707.63,1152.83 1700.61,1117.09C1695.59,1091.55 1690.41,1071.62 1660.32,1049.02C1649.27,1040.73 1620.07,1026.09 1592.72,1021.24C1558.35,1015.14 1526.4,1018.78 1514.19,1022.26C1483.12,1031.13 1485.46,1062.86 1485.46,1062.86C1485.46,1062.86 1524.41,1049.37 1567.34,1058.8C1595.6,1065.01 1605.36,1075.42 1612.1,1084.72C1618.62,1093.7 1620.68,1116.65 1620.68,1116.65L1604.25,1109.29C1604.25,1109.29 1603.89,1103.58 1600.49,1097.64C1598.88,1094.84 1585.32,1084.2 1572.84,1080.7C1563.04,1077.96 1552.67,1074.35 1531.46,1074.91C1504.57,1075.61 1475.55,1084.96 1467.07,1098.26C1462.55,1105.34 1461.78,1116.67 1461.78,1116.67C1461.78,1116.67 1481.81,1107.46 1519.39,1105.01C1542.37,1103.51 1566.25,1106.17 1579.72,1109.93C1592.23,1113.42 1608.27,1119.93 1618.18,1128.78C1634.22,1143.1 1640.52,1164.93 1639.46,1174.53C1639,1178.72 1635.9,1184.45 1628.87,1186.07C1622.5,1187.53 1615.92,1187.76 1615.92,1187.76C1615.92,1187.76 1612.92,1192.76 1606.36,1195.46C1594.44,1200.38 1559.45,1210.24 1530.38,1210.18C1519.79,1210.16 1503.44,1206.73 1493.71,1203.27C1487.98,1201.23 1484.15,1198.49 1484.15,1198.49C1484.15,1198.49 1470.5,1213.72 1470.12,1227.12C1469.91,1234.73 1476.06,1243.06 1489.08,1243.03C1501.98,1243.01 1538.51,1235.19 1555.67,1235.43C1572.83,1235.67 1604.79,1250.21 1619.59,1243.61C1631.23,1238.42 1639.18,1224.7 1638.56,1213.17C1637.96,1202.02 1628.96,1195.9 1628.96,1195.9C1628.96,1195.9 1637.25,1193.89 1641.03,1191.37C1643.28,1189.87 1645.29,1188.07 1645.29,1188.07C1645.29,1188.07 1658.93,1197.89 1658.08,1216.78C1657.43,1231.18 1641.59,1257.38 1619.67,1258.68C1589.22,1260.48 1573.59,1248.6 1557.68,1247.27C1539.72,1245.76 1503.05,1255.2 1483.93,1251.92C1469.15,1249.39 1464.29,1240.56 1461.51,1232.29C1459.46,1226.2 1461.21,1218.45 1461.99,1216.04C1466.25,1202.79 1474.24,1191.15 1474.24,1191.15C1474.24,1191.15 1471.72,1189.08 1469.71,1184.47C1467.38,1179.1 1466.53,1172.34 1466.53,1172.34C1466.53,1172.34 1482.99,1156.1 1497,1149.02C1503.57,1145.69 1513.81,1144.49 1513.81,1144.49C1513.81,1144.49 1510.99,1147.27 1510.71,1152.33C1510.37,1158.6 1515.29,1173.8 1531.35,1177.42C1539.47,1179.25 1543.6,1177.51 1549.26,1176.19C1557.3,1174.32 1563.47,1167.34 1564.96,1160.65C1566.89,1151.96 1561.4,1144.09 1561.4,1144.09C1561.4,1144.09 1572.48,1147.86 1584.18,1153.82C1602.83,1163.32 1615.05,1175.49 1615.05,1175.49C1615.05,1175.49 1618.18,1175.46 1620.54,1174.12C1622.54,1172.99 1623.46,1170.96 1623.72,1166.75C1624.26,1158.03 1614.1,1147.18 1605.51,1138.89C1598.66,1132.28 1577.89,1123.79 1568.19,1121.64C1558.49,1119.49 1546.21,1119.06 1534.92,1119.54C1521.21,1120.13 1496.23,1122.16 1469.19,1135.23C1465.66,1136.93 1449.91,1146.89 1450.13,1162C1450.26,1170.66 1459.67,1173.97 1459.67,1173.97C1459.67,1173.97 1459.89,1177.28 1460.22,1179.02C1460.56,1180.75 1461.69,1184.38 1461.69,1184.38C1461.69,1184.38 1456.77,1184.15 1451.45,1180.33ZM1347.45,929.2C1368.43,930.148 1407.85,932.471 1422.5,936.994C1440.13,942.433 1497.06,973.903 1513.12,975.62C1528.56,977.271 1578.48,964.176 1593.69,966.114C1612.86,968.555 1629.59,977.049 1638.71,984.977C1648.58,993.558 1651.52,1001.96 1653.4,1009.7C1668.44,1016.21 1691.61,1044.19 1705.92,1067.31C1735.1,1114.48 1737.64,1153.26 1738.09,1188.59C1738.44,1216.25 1742.07,1230.25 1732.99,1250.99C1721.79,1276.6 1664.67,1328.15 1647.23,1345.25C1582.78,1408.48 1571.99,1435.33 1560.58,1484.18C1555.25,1506.96 1549.23,1523.35 1549.23,1523.35L1549.08,1523.9L1549.12,1523.91C1549.12,1523.91 1624.07,1554.85 1634.6,1561.7C1638.91,1564.51 1644.99,1571.52 1644.99,1571.52C1644.99,1571.52 1651.19,1569.13 1665.49,1560.2C1668.24,1558.48 1675.74,1550.59 1678.31,1546.16C1686.08,1532.73 1689.57,1511.54 1683.64,1494.27C1675.77,1471.3 1661.7,1417.89 1671.27,1385.92C1680.35,1355.6 1731.11,1312.77 1743.63,1298.38C1756.36,1283.76 1769.86,1214.11 1771.84,1189.12C1773.28,1170.9 1776.27,1132.67 1777.78,1113.31C1777.6,1105.19 1776.77,1093.61 1774.02,1081.63C1766.6,1049.29 1751.88,1021.23 1734.51,999.013C1700.07,954.981 1560.26,881.157 1462.96,891.771C1402,898.421 1349.37,928.555 1349.37,928.555C1349.37,928.555 1348.7,928.774 1347.45,929.2ZM1451.16,1496.66C1450.79,1496.88 1444.48,1500.88 1438.25,1505.76C1432.69,1510.1 1425.02,1517.5 1418.21,1522.83C1411.58,1528.02 1404.29,1530.18 1399.72,1531.25C1388.3,1533.92 1371.74,1530.09 1349.85,1517.18C1336.69,1509.42 1322.31,1506.97 1301.25,1507.41C1278.6,1507.87 1237.79,1523.22 1218.82,1532.19C1210.65,1536.05 1203.05,1540.86 1197.82,1544.44C1194.27,1548.92 1190.34,1551.68 1188.62,1558.8C1187.85,1561.98 1186.93,1568.11 1188.19,1571.55C1188.46,1572.32 1188.79,1573.06 1189.14,1573.78C1207.13,1581.29 1230.71,1584.95 1240.22,1586.16C1255.64,1588.13 1280.38,1586.17 1295.63,1588.75C1307.51,1590.75 1344.22,1614.94 1368.85,1617.97C1385.12,1619.97 1452.69,1603.57 1466.51,1600.55C1471.85,1599.38 1497.31,1597.88 1524.82,1598.48C1555.75,1599.15 1593.83,1599.47 1613.37,1599.59C1616.09,1599.18 1618.59,1598.72 1620.6,1598.23C1628.96,1596.15 1635.89,1582.56 1637.08,1579.18C1638.27,1575.81 1631.76,1571.4 1627.74,1569.33C1614.3,1562.41 1574.58,1547.02 1556.47,1537.65C1553.64,1536.18 1550.3,1534.21 1546.81,1532.03L1546.64,1532.62C1546.64,1532.62 1494.88,1498.53 1478.63,1493.83C1466.17,1490.23 1456.18,1494.73 1456.18,1494.73C1456.18,1494.73 1453.68,1473.37 1452.97,1465.12C1452.46,1459.16 1452.02,1447.76 1451.94,1445.63C1447.17,1447.87 1441.73,1449.87 1436.5,1450.56C1423.32,1452.31 1402.08,1449.58 1402.08,1449.58C1402.08,1449.58 1400.73,1479.13 1398.84,1485.21C1395.87,1494.74 1390.92,1497.74 1385.67,1497.49C1375.14,1496.98 1373.03,1493.35 1368.11,1478.43C1364.44,1467.32 1365.2,1446.88 1365.2,1446.88C1365.2,1446.88 1330.73,1449.71 1323.22,1448.94C1307.75,1447.35 1290.1,1436.81 1285.5,1427.87C1282.58,1422.17 1278.42,1411.59 1277.52,1403.2C1276.07,1389.61 1278.81,1377.08 1279.54,1374.06C1275.34,1370.25 1266.04,1361.2 1263.83,1353.89C1259.99,1341.2 1258.56,1322.27 1267.18,1305.56C1273.96,1292.41 1278.34,1291.23 1285.94,1288.25C1291.77,1285.96 1310.62,1283.52 1318.47,1282.58C1320.55,1277.42 1322.24,1273.21 1323.36,1270.37C1323.36,1270.37 1315.92,1270.72 1308.01,1271.7C1301.47,1272.52 1293.25,1274.62 1290.59,1274.81C1289.23,1274.91 1281.53,1250.22 1281.53,1250.22C1281.53,1250.22 1288.48,1246.37 1308.77,1248.27C1316.11,1248.96 1330.48,1252.51 1330.48,1252.51L1333.1,1244.92C1316.4,1245.86 1271.23,1237.48 1259.67,1232.15C1254.85,1229.92 1231.34,1239.56 1212.09,1239.55C1210.93,1239.55 1197.89,1241.04 1186.99,1236.74C1176.09,1232.44 1157.55,1215.85 1160,1199.08C1162.85,1179.57 1182.09,1171.9 1182.09,1171.9C1182.09,1171.9 1173.74,1151.59 1177.43,1141.71C1178.89,1137.8 1182.72,1130.41 1188.72,1122.07C1187.38,1120.68 1166.11,1099.55 1144.49,1132.56C1130.18,1154.41 1160.48,1238.49 1163.43,1253.71C1165.46,1264.15 1160.42,1335.12 1177.31,1337.07C1183.14,1337.73 1196.44,1327.77 1204.72,1320.98C1204.72,1320.94 1202.12,1269.77 1201.22,1265.09C1200.33,1260.41 1198.37,1247.07 1198.37,1247.07L1211.39,1248.87C1211.76,1249.09 1210.44,1262.87 1210.18,1268.91C1209.85,1276.52 1211.84,1314.92 1211.84,1314.92L1211.87,1315.03C1212.34,1317.18 1220.06,1351.87 1231.62,1364.5C1231.83,1364.71 1232.02,1364.94 1232.21,1365.16L1232.14,1364.57C1232.14,1364.57 1252.82,1388.01 1260.8,1400.64C1268.87,1413.41 1276.88,1435.57 1281.27,1448.24C1287.06,1464.99 1323.56,1498.73 1323.56,1498.73C1323.56,1498.73 1344.37,1504.2 1365.2,1515.85C1383.78,1526.23 1392.11,1523.33 1398.48,1523.03C1406.01,1522.66 1420.87,1512.36 1433.8,1499.93C1442.82,1491.27 1450.08,1487.3 1450.08,1487.3L1451.16,1496.66ZM1451.16,1496.66C1451.18,1496.65 1451.18,1496.65 1451.16,1496.66ZM1224.33,1559.33C1236.87,1551.87 1266.6,1540.66 1294,1540.38C1318.96,1540.13 1351.5,1552.45 1379.7,1557.1C1393.61,1559.39 1410.06,1555.33 1412.11,1554.34C1424.86,1548.12 1458.86,1519.67 1470.24,1517.92C1491.44,1514.66 1528.33,1547.18 1542.65,1553.72C1554.26,1559.02 1607.16,1579.42 1608.63,1586.09C1609.76,1591.22 1562.49,1585.59 1548.54,1583.81C1487.26,1576 1461.17,1582.45 1448.34,1584.39C1435.52,1586.33 1405.44,1597.85 1390.02,1598.4C1374,1598.98 1355.99,1597.82 1341.35,1590.7C1330.96,1585.64 1313.59,1573.42 1309.42,1572.66C1297.51,1570.51 1243.76,1570.07 1234.5,1567.82C1225.24,1565.57 1220.87,1561.39 1224.33,1559.33ZM1204.9,1527.71C1210.44,1524.92 1226.94,1516.68 1233.5,1513.83C1238.95,1511.46 1250.67,1507.95 1250.67,1507.95C1250.67,1507.95 1260.37,1442.67 1252.96,1419.63C1249.45,1408.7 1240.46,1396.59 1236.71,1391.83L1236.64,1392.07C1236.64,1392.07 1219.23,1477.46 1204.9,1527.71ZM1201.95,1106.42C1209.78,1098.55 1219.33,1091.16 1230.42,1086.19C1231.93,1074.31 1235.85,1053.97 1245.79,1040.61C1253.09,1030.8 1292.32,989.425 1329.81,990.16C1367.3,990.894 1399.06,1009.45 1413.56,1035.52C1427.15,1059.92 1427.91,1144.75 1427.27,1159.01C1424.06,1231.31 1378.75,1382.88 1378.75,1382.88C1378.75,1382.88 1405.75,1385.69 1411.26,1378.94C1413.07,1376.73 1425.96,1352.05 1431.91,1317.26C1441.67,1260.27 1442.32,1187.08 1442.33,1168.65C1442.17,1168.3 1442.02,1167.94 1441.88,1167.58C1439.49,1161.64 1439.72,1146.07 1441.91,1139.57C1444.78,1131.05 1450.05,1125.88 1450.05,1125.88C1450.05,1125.88 1450.7,1106.58 1454.32,1095.84C1459.21,1081.36 1470.01,1072.9 1470.01,1072.9C1470.01,1072.9 1468.56,1046.03 1474.57,1035.31C1481.45,1023.04 1501.39,1009.24 1525.53,1005.77C1556.5,1001.31 1587.71,1006.45 1599.01,1009.47C1602.39,1010.38 1614.24,1003.2 1635.53,1005.63C1634.79,1003.98 1633.42,1001.32 1631.6,999.77C1624.4,993.614 1620.83,988.857 1596.89,984.781C1565.38,979.418 1540.1,992.885 1523.26,992.122C1520.5,991.996 1502.48,992.072 1488.88,985.519C1448.17,965.897 1418.29,951.841 1405.67,950.207C1399.32,949.384 1370.2,945.303 1344.28,946.416C1316.02,947.631 1292.28,954.323 1279.5,958.69C1269.83,963.908 1260.2,969.689 1251.41,975.94C1207.52,1007.15 1202.5,1091.12 1201.95,1106.42ZM1456.09,1755.51C1456.09,1755.51 1418.15,1749.03 1430.66,1748.16C1443.16,1747.31 1457.1,1738.79 1457.1,1738.79L1456.09,1755.51Z" style="fill:rgb(50,90,40);"/>
            </g>
        </g>
        <g transform="matrix(3.58067,0,0,3.58067,-5663.54,-3358.06)">
            <g id="Layer201" serif:id="Layer20" transform="matrix(0.159955,0.0133631,-0.0133631,0.159955,1562.68,1084.85)">
                <path d="M1743.12,1324.97C1741.67,1326.53 1740.29,1327.9 1739.02,1329.03C1685.88,1375.88 1682.85,1400.53 1681.97,1415.64C1680.76,1436.51 1691.95,1466.12 1699.95,1490.7C1705.59,1508.03 1700.28,1540.81 1696.21,1549.58C1690.14,1562.64 1667.9,1577.38 1667.9,1577.38C1667.9,1577.38 1671.24,1608.26 1671.61,1630.71C1672.04,1657.4 1671.95,1682.08 1666.19,1705.39C1664.37,1712.78 1644.27,1728.78 1619.21,1742.7C1611.56,1746.94 1580.83,1753.22 1551.98,1757.38C1522.73,1761.59 1495.41,1763.65 1495.41,1763.65C1495.41,1763.65 1498.71,1722.76 1501.97,1720C1507.98,1714.9 1517.23,1706.62 1523.7,1700.69L1445.88,1689.44C1445.88,1689.44 1433.19,1704.88 1408.25,1711.63C1398.68,1714.23 1373.02,1720.38 1353.44,1716.35C1335.72,1712.7 1313.08,1691.16 1313.08,1691.16C1313.08,1691.16 1290.88,1687.28 1285.89,1686.63C1280.9,1685.98 1262.6,1687.04 1262.6,1687.04L1266.91,1703.12L1242.77,1690.85C1242.77,1690.85 1220.83,1693.89 1210.75,1693.5C1203.16,1693.2 1192.41,1690.46 1183.88,1680.38C1178.64,1674.17 1175.59,1656.33 1174.44,1648.22C1161.68,1638.31 1065.68,1561.29 1032.97,1460.45C964.82,1250.37 1034.63,1124.35 1115.85,1031.48C1229.05,902.029 1408.92,866.37 1512.69,877.627C1616.47,888.883 1763.62,943.739 1839.39,1067.2C1875.64,1126.29 1898.09,1192.49 1903.62,1253.13C1909.66,1319.22 1903.92,1368.8 1889.04,1421.59C1856.19,1538.11 1781.07,1604.83 1781.07,1604.83C1781.07,1604.83 1780.94,1480.81 1773.65,1427.39C1770.31,1402.9 1745.69,1332.31 1743.12,1324.97ZM1286.26,1359.89C1294.15,1341.76 1304.28,1317.35 1312.19,1298.01C1307.78,1298.01 1299.88,1298.25 1296.09,1299.93C1290.68,1302.33 1282.76,1307.15 1278.56,1319.91C1275.12,1330.37 1275.07,1339.26 1278.2,1347.28C1281.69,1356.23 1286.26,1359.89 1286.26,1359.89ZM1185.05,1640.69C1184.72,1645.54 1184.51,1652.54 1185.49,1657.44C1188.1,1670.47 1191.98,1676.65 1204.55,1683.32C1217.12,1689.98 1263.02,1677.57 1285.11,1679.41C1300.24,1680.67 1336.17,1688.23 1368.48,1685.72C1385.33,1684.41 1425.12,1679.55 1442.62,1681.46C1460.11,1683.38 1531.8,1693.56 1531.8,1693.56L1531.65,1693.71C1537.38,1694.83 1593.41,1704.99 1619.74,1681.44C1632.18,1670.32 1640.74,1648.25 1629.75,1624.26C1628.33,1621.13 1625.4,1618.3 1621.74,1615.77C1611.47,1613.86 1595.67,1611.36 1581.1,1610.08C1529.21,1605.51 1474.09,1613.27 1457.81,1615.54C1438.79,1618.18 1393.15,1635.26 1357.11,1629.2C1347.04,1627.51 1303.29,1606.67 1291.04,1604.57C1276.53,1602.08 1221.76,1596.15 1200.68,1593.91C1197.83,1598.52 1193.73,1605.45 1191.87,1610.05C1186,1624.58 1185.12,1640.63 1185.12,1640.63L1185.05,1640.69ZM1213.16,1608.56C1217.3,1606.37 1268.14,1611.9 1281.54,1616.51C1294.95,1621.12 1356.76,1640.21 1373.54,1642.6C1397.94,1646.06 1454.36,1627.06 1493.51,1623.38C1528.83,1620.07 1579.04,1622.8 1596.35,1632.2C1614.94,1642.3 1607.36,1676.76 1560.62,1671.12C1512.42,1665.3 1465.62,1661.57 1425.66,1661.13C1407.49,1660.93 1343.63,1660.9 1320.76,1661.79C1302.62,1662.49 1264.82,1670.58 1240.87,1667.14C1216.92,1663.71 1214.01,1655.95 1212.07,1647.11C1209.35,1634.68 1211.43,1609.48 1213.16,1608.56ZM1789.96,1125.38C1789.61,1131.82 1788.76,1146.87 1787.74,1160.86C1790.15,1160.12 1793.5,1159.3 1797.09,1159.06C1805.88,1158.49 1816.36,1160.53 1820.69,1165.68C1829.36,1176 1829.31,1182.26 1829.16,1188.19C1828.95,1196.51 1815.35,1211.65 1813.29,1219.34C1810.31,1230.45 1821.93,1251.89 1821.47,1260.8C1821.01,1269.71 1816.18,1298.77 1802.06,1300.53C1788.43,1302.23 1773.75,1294.01 1766.44,1289.15L1766.3,1289.63C1765.45,1292.62 1763.3,1296.9 1760.46,1301.61C1760.46,1301.61 1771.14,1329.24 1787.26,1342.6C1805.23,1357.5 1829.32,1357.41 1844.83,1340.79C1863.35,1320.95 1855.71,1258.36 1858.29,1227.42C1859.38,1214.36 1875.47,1172.19 1868.51,1155.26C1862.9,1141.6 1856.55,1123.5 1835.85,1116C1819.35,1110.03 1790.13,1125.39 1790.13,1125.39L1789.96,1125.38ZM1773.47,1265.21C1779.4,1270.27 1787.74,1276.43 1793.32,1276.62C1801.36,1276.89 1807.33,1265.46 1804.88,1256.95C1801.77,1246.11 1794.3,1228.31 1794.98,1220.65C1796.43,1204.32 1807.29,1192.69 1803.58,1186.7C1799.45,1180.02 1790.69,1183.77 1785.22,1187.08C1784.45,1193.86 1782.73,1216.94 1780.79,1230.69C1779.11,1242.65 1776.23,1254.91 1773.47,1265.21ZM1451.45,1180.33C1450.88,1189.28 1448.74,1223.84 1448.71,1236.13C1448.65,1264.86 1434.65,1381.21 1422.02,1386.61C1407.74,1392.72 1365.86,1395.44 1354.53,1390.02C1343.2,1384.59 1341.93,1375.01 1343.16,1367.7C1344.39,1360.4 1391.78,1233.35 1395.17,1157.1C1397.26,1110.26 1397.45,1077.2 1389.18,1061.25C1377.83,1039.36 1351.87,1033.21 1332.44,1037.8C1303.87,1044.55 1292,1075.02 1292,1075.02L1290.93,1075.44C1296.84,1075.85 1302.52,1076.55 1308.05,1077.27C1326.11,1079.62 1359.41,1099.33 1367.51,1123.58C1374.12,1143.37 1372.8,1160.43 1363.1,1169.11C1349.14,1181.6 1327.8,1178.88 1327.8,1178.88C1327.8,1178.88 1318.47,1186.49 1305,1189.79C1290.85,1193.24 1227.46,1189.39 1205.91,1173.23C1204.37,1172.07 1203.29,1169.27 1203.84,1166.91C1205.62,1159.38 1215.7,1146.09 1231.24,1134.58C1241.65,1126.87 1254.48,1121.34 1257.93,1123.92C1266.36,1130.25 1265.73,1139.2 1270.41,1141.27C1273.07,1142.45 1283.8,1145.78 1290.97,1138.59C1297.13,1132.41 1294.05,1115.95 1301.64,1114.67C1308.55,1113.51 1324.11,1117.54 1333.03,1126.94C1342.5,1136.93 1348.62,1163.5 1348.62,1163.5C1348.62,1163.5 1361.85,1156.24 1359.8,1146.93C1357.76,1137.62 1348.29,1104.31 1314.85,1093.48C1288.02,1084.8 1277.14,1088.49 1262.53,1092.08C1243.99,1096.63 1212.59,1114.58 1204.6,1123.71C1196.9,1132.51 1191.46,1139.07 1188.87,1149.56C1185.33,1163.9 1196.76,1187.15 1196.76,1187.15C1196.76,1187.15 1193.75,1187.2 1191.55,1185.78C1189.97,1184.76 1189.34,1181.95 1188.08,1182.59C1184.06,1184.66 1173.76,1190.59 1172.65,1199.53C1171.54,1208.47 1182.87,1223.81 1195.01,1226.15C1210.25,1229.09 1251.23,1218.39 1260.85,1219.98C1270.47,1221.56 1323.14,1232.9 1331.63,1232.12C1339.6,1231.38 1358.01,1224.61 1359.9,1209.4C1360.49,1204.69 1346.89,1190.13 1346.89,1190.13L1360.39,1186.12C1360.39,1186.12 1371.36,1195.37 1372.94,1207.62C1373.61,1212.81 1370.56,1223.46 1362.24,1231.48C1359.26,1234.35 1354.11,1237.5 1348.69,1240.06L1337.89,1271.09C1337.89,1271.09 1299.18,1357.98 1291.47,1382.12C1288.04,1392.86 1286.04,1401.64 1292.61,1415.83C1297.4,1426.2 1305.64,1436.35 1318.68,1439.76C1324.22,1441.2 1364.01,1436.86 1377.95,1435.51C1391.58,1434.19 1415.08,1435.44 1421.93,1434.6C1438.89,1432.54 1468.08,1412.28 1473.19,1385.98C1473.8,1382.85 1475.24,1377.62 1475.77,1371.19C1477.79,1346.4 1475.83,1319.35 1475.83,1319.35L1486.64,1319.14C1486.64,1319.14 1489.56,1364.24 1490.03,1376.45C1490.25,1381.99 1489.35,1393.05 1489.35,1393.05C1499.12,1393.66 1547.89,1395.79 1559.27,1378.79C1564.65,1370.75 1554.38,1346.92 1539.52,1331.61C1512.14,1303.42 1475.56,1309.48 1475.56,1309.48L1474.55,1286.15C1474.55,1286.15 1502.52,1285.52 1538.02,1287.48C1552.69,1288.29 1592.21,1308.87 1622.19,1308.62C1643.57,1308.43 1667.82,1276.7 1680.96,1246.78C1698.19,1207.56 1707.63,1152.83 1700.61,1117.09C1695.59,1091.55 1690.41,1071.62 1660.32,1049.02C1649.27,1040.73 1620.07,1026.09 1592.72,1021.24C1558.35,1015.14 1526.4,1018.78 1514.19,1022.26C1483.12,1031.13 1485.46,1062.86 1485.46,1062.86C1485.46,1062.86 1524.41,1049.37 1567.34,1058.8C1595.6,1065.01 1605.36,1075.42 1612.1,1084.72C1618.62,1093.7 1620.68,1116.65 1620.68,1116.65L1604.25,1109.29C1604.25,1109.29 1603.89,1103.58 1600.49,1097.64C1598.88,1094.84 1585.32,1084.2 1572.84,1080.7C1563.04,1077.96 1552.67,1074.35 1531.46,1074.91C1504.57,1075.61 1475.55,1084.96 1467.07,1098.26C1462.55,1105.34 1461.78,1116.67 1461.78,1116.67C1461.78,1116.67 1481.81,1107.46 1519.39,1105.01C1542.37,1103.51 1566.25,1106.17 1579.72,1109.93C1592.23,1113.42 1608.27,1119.93 1618.18,1128.78C1634.22,1143.1 1640.52,1164.93 1639.46,1174.53C1639,1178.72 1635.9,1184.45 1628.87,1186.07C1622.5,1187.53 1615.92,1187.76 1615.92,1187.76C1615.92,1187.76 1612.92,1192.76 1606.36,1195.46C1594.44,1200.38 1559.45,1210.24 1530.38,1210.18C1519.79,1210.16 1503.44,1206.73 1493.71,1203.27C1487.98,1201.23 1484.15,1198.49 1484.15,1198.49C1484.15,1198.49 1470.5,1213.72 1470.12,1227.12C1469.91,1234.73 1476.06,1243.06 1489.08,1243.03C1501.98,1243.01 1538.51,1235.19 1555.67,1235.43C1572.83,1235.67 1604.79,1250.21 1619.59,1243.61C1631.23,1238.42 1639.18,1224.7 1638.56,1213.17C1637.96,1202.02 1628.96,1195.9 1628.96,1195.9C1628.96,1195.9 1637.25,1193.89 1641.03,1191.37C1643.28,1189.87 1645.29,1188.07 1645.29,1188.07C1645.29,1188.07 1658.93,1197.89 1658.08,1216.78C1657.43,1231.18 1641.59,1257.38 1619.67,1258.68C1589.22,1260.48 1573.59,1248.6 1557.68,1247.27C1539.72,1245.76 1503.05,1255.2 1483.93,1251.92C1469.15,1249.39 1464.29,1240.56 1461.51,1232.29C1459.46,1226.2 1461.21,1218.45 1461.99,1216.04C1466.25,1202.79 1474.24,1191.15 1474.24,1191.15C1474.24,1191.15 1471.72,1189.08 1469.71,1184.47C1467.38,1179.1 1466.53,1172.34 1466.53,1172.34C1466.53,1172.34 1482.99,1156.1 1497,1149.02C1503.57,1145.69 1513.81,1144.49 1513.81,1144.49C1513.81,1144.49 1510.99,1147.27 1510.71,1152.33C1510.37,1158.6 1515.29,1173.8 1531.35,1177.42C1539.47,1179.25 1543.6,1177.51 1549.26,1176.19C1557.3,1174.32 1563.47,1167.34 1564.96,1160.65C1566.89,1151.96 1561.4,1144.09 1561.4,1144.09C1561.4,1144.09 1572.48,1147.86 1584.18,1153.82C1602.83,1163.32 1615.05,1175.49 1615.05,1175.49C1615.05,1175.49 1618.18,1175.46 1620.54,1174.12C1622.54,1172.99 1623.46,1170.96 1623.72,1166.75C1624.26,1158.03 1614.1,1147.18 1605.51,1138.89C1598.66,1132.28 1577.89,1123.79 1568.19,1121.64C1558.49,1119.49 1546.21,1119.06 1534.92,1119.54C1521.21,1120.13 1496.23,1122.16 1469.19,1135.23C1465.66,1136.93 1449.91,1146.89 1450.13,1162C1450.26,1170.66 1459.67,1173.97 1459.67,1173.97C1459.67,1173.97 1459.89,1177.28 1460.22,1179.02C1460.56,1180.75 1461.69,1184.38 1461.69,1184.38C1461.69,1184.38 1456.77,1184.15 1451.45,1180.33ZM1347.45,929.2C1368.43,930.148 1407.85,932.471 1422.5,936.994C1440.13,942.433 1497.06,973.903 1513.12,975.62C1528.56,977.271 1578.48,964.176 1593.69,966.114C1612.86,968.555 1629.59,977.049 1638.71,984.977C1648.58,993.558 1651.52,1001.96 1653.4,1009.7C1668.44,1016.21 1691.61,1044.19 1705.92,1067.31C1735.1,1114.48 1737.64,1153.26 1738.09,1188.59C1738.44,1216.25 1742.07,1230.25 1732.99,1250.99C1721.79,1276.6 1664.67,1328.15 1647.23,1345.25C1582.78,1408.48 1571.99,1435.33 1560.58,1484.18C1555.25,1506.96 1549.23,1523.35 1549.23,1523.35L1549.08,1523.9L1549.12,1523.91C1549.12,1523.91 1624.07,1554.85 1634.6,1561.7C1638.91,1564.51 1644.99,1571.52 1644.99,1571.52C1644.99,1571.52 1651.19,1569.13 1665.49,1560.2C1668.24,1558.48 1675.74,1550.59 1678.31,1546.16C1686.08,1532.73 1689.57,1511.54 1683.64,1494.27C1675.77,1471.3 1661.7,1417.89 1671.27,1385.92C1680.35,1355.6 1731.11,1312.77 1743.63,1298.38C1756.36,1283.76 1769.86,1214.11 1771.84,1189.12C1773.28,1170.9 1776.27,1132.67 1777.78,1113.31C1777.6,1105.19 1776.77,1093.61 1774.02,1081.63C1766.6,1049.29 1751.88,1021.23 1734.51,999.013C1700.07,954.981 1560.26,881.157 1462.96,891.771C1402,898.421 1349.37,928.555 1349.37,928.555C1349.37,928.555 1348.7,928.774 1347.45,929.2ZM1451.16,1496.66C1450.79,1496.88 1444.48,1500.88 1438.25,1505.76C1432.69,1510.1 1425.02,1517.5 1418.21,1522.83C1411.58,1528.02 1404.29,1530.18 1399.72,1531.25C1388.3,1533.92 1371.74,1530.09 1349.85,1517.18C1336.69,1509.42 1322.31,1506.97 1301.25,1507.41C1278.6,1507.87 1237.79,1523.22 1218.82,1532.19C1210.65,1536.05 1203.05,1540.86 1197.82,1544.44C1194.27,1548.92 1190.34,1551.68 1188.62,1558.8C1187.85,1561.98 1186.93,1568.11 1188.19,1571.55C1188.46,1572.32 1188.79,1573.06 1189.14,1573.78C1207.13,1581.29 1230.71,1584.95 1240.22,1586.16C1255.64,1588.13 1280.38,1586.17 1295.63,1588.75C1307.51,1590.75 1344.22,1614.94 1368.85,1617.97C1385.12,1619.97 1452.69,1603.57 1466.51,1600.55C1471.85,1599.38 1497.31,1597.88 1524.82,1598.48C1555.75,1599.15 1593.83,1599.47 1613.37,1599.59C1616.09,1599.18 1618.59,1598.72 1620.6,1598.23C1628.96,1596.15 1635.89,1582.56 1637.08,1579.18C1638.27,1575.81 1631.76,1571.4 1627.74,1569.33C1614.3,1562.41 1574.58,1547.02 1556.47,1537.65C1553.64,1536.18 1550.3,1534.21 1546.81,1532.03L1546.64,1532.62C1546.64,1532.62 1494.88,1498.53 1478.63,1493.83C1466.17,1490.23 1456.18,1494.73 1456.18,1494.73C1456.18,1494.73 1453.68,1473.37 1452.97,1465.12C1452.46,1459.16 1452.02,1447.76 1451.94,1445.63C1447.17,1447.87 1441.73,1449.87 1436.5,1450.56C1423.32,1452.31 1402.08,1449.58 1402.08,1449.58C1402.08,1449.58 1400.73,1479.13 1398.84,1485.21C1395.87,1494.74 1390.92,1497.74 1385.67,1497.49C1375.14,1496.98 1373.03,1493.35 1368.11,1478.43C1364.44,1467.32 1365.2,1446.88 1365.2,1446.88C1365.2,1446.88 1330.73,1449.71 1323.22,1448.94C1307.75,1447.35 1290.1,1436.81 1285.5,1427.87C1282.58,1422.17 1278.42,1411.59 1277.52,1403.2C1276.07,1389.61 1278.81,1377.08 1279.54,1374.06C1275.34,1370.25 1266.04,1361.2 1263.83,1353.89C1259.99,1341.2 1258.56,1322.27 1267.18,1305.56C1273.96,1292.41 1278.34,1291.23 1285.94,1288.25C1291.77,1285.96 1310.62,1283.52 1318.47,1282.58C1320.55,1277.42 1322.24,1273.21 1323.36,1270.37C1323.36,1270.37 1315.92,1270.72 1308.01,1271.7C1301.47,1272.52 1293.25,1274.62 1290.59,1274.81C1289.23,1274.91 1281.53,1250.22 1281.53,1250.22C1281.53,1250.22 1288.48,1246.37 1308.77,1248.27C1316.11,1248.96 1330.48,1252.51 1330.48,1252.51L1333.1,1244.92C1316.4,1245.86 1271.23,1237.48 1259.67,1232.15C1254.85,1229.92 1231.34,1239.56 1212.09,1239.55C1210.93,1239.55 1197.89,1241.04 1186.99,1236.74C1176.09,1232.44 1157.55,1215.85 1160,1199.08C1162.85,1179.57 1182.09,1171.9 1182.09,1171.9C1182.09,1171.9 1173.74,1151.59 1177.43,1141.71C1178.89,1137.8 1182.72,1130.41 1188.72,1122.07C1187.38,1120.68 1166.11,1099.55 1144.49,1132.56C1130.18,1154.41 1160.48,1238.49 1163.43,1253.71C1165.46,1264.15 1160.42,1335.12 1177.31,1337.07C1183.14,1337.73 1196.44,1327.77 1204.72,1320.98C1204.72,1320.94 1202.12,1269.77 1201.22,1265.09C1200.33,1260.41 1198.37,1247.07 1198.37,1247.07L1211.39,1248.87C1211.76,1249.09 1210.44,1262.87 1210.18,1268.91C1209.85,1276.52 1211.84,1314.92 1211.84,1314.92L1211.87,1315.03C1212.34,1317.18 1220.06,1351.87 1231.62,1364.5C1231.83,1364.71 1232.02,1364.94 1232.21,1365.16L1232.14,1364.57C1232.14,1364.57 1252.82,1388.01 1260.8,1400.64C1268.87,1413.41 1276.88,1435.57 1281.27,1448.24C1287.06,1464.99 1323.56,1498.73 1323.56,1498.73C1323.56,1498.73 1344.37,1504.2 1365.2,1515.85C1383.78,1526.23 1392.11,1523.33 1398.48,1523.03C1406.01,1522.66 1420.87,1512.36 1433.8,1499.93C1442.82,1491.27 1450.08,1487.3 1450.08,1487.3L1451.16,1496.66ZM1451.16,1496.66C1451.18,1496.65 1451.18,1496.65 1451.16,1496.66ZM1224.33,1559.33C1236.87,1551.87 1266.6,1540.66 1294,1540.38C1318.96,1540.13 1351.5,1552.45 1379.7,1557.1C1393.61,1559.39 1410.06,1555.33 1412.11,1554.34C1424.86,1548.12 1458.86,1519.67 1470.24,1517.92C1491.44,1514.66 1528.33,1547.18 1542.65,1553.72C1554.26,1559.02 1607.16,1579.42 1608.63,1586.09C1609.76,1591.22 1562.49,1585.59 1548.54,1583.81C1487.26,1576 1461.17,1582.45 1448.34,1584.39C1435.52,1586.33 1405.44,1597.85 1390.02,1598.4C1374,1598.98 1355.99,1597.82 1341.35,1590.7C1330.96,1585.64 1313.59,1573.42 1309.42,1572.66C1297.51,1570.51 1243.76,1570.07 1234.5,1567.82C1225.24,1565.57 1220.87,1561.39 1224.33,1559.33ZM1204.9,1527.71C1210.44,1524.92 1226.94,1516.68 1233.5,1513.83C1238.95,1511.46 1250.67,1507.95 1250.67,1507.95C1250.67,1507.95 1260.37,1442.67 1252.96,1419.63C1249.45,1408.7 1240.46,1396.59 1236.71,1391.83L1236.64,1392.07C1236.64,1392.07 1219.23,1477.46 1204.9,1527.71ZM1201.95,1106.42C1209.78,1098.55 1219.33,1091.16 1230.42,1086.19C1231.93,1074.31 1235.85,1053.97 1245.79,1040.61C1253.09,1030.8 1292.32,989.425 1329.81,990.16C1367.3,990.894 1399.06,1009.45 1413.56,1035.52C1427.15,1059.92 1427.91,1144.75 1427.27,1159.01C1424.06,1231.31 1378.75,1382.88 1378.75,1382.88C1378.75,1382.88 1405.75,1385.69 1411.26,1378.94C1413.07,1376.73 1425.96,1352.05 1431.91,1317.26C1441.67,1260.27 1442.32,1187.08 1442.33,1168.65C1442.17,1168.3 1442.02,1167.94 1441.88,1167.58C1439.49,1161.64 1439.72,1146.07 1441.91,1139.57C1444.78,1131.05 1450.05,1125.88 1450.05,1125.88C1450.05,1125.88 1450.7,1106.58 1454.32,1095.84C1459.21,1081.36 1470.01,1072.9 1470.01,1072.9C1470.01,1072.9 1468.56,1046.03 1474.57,1035.31C1481.45,1023.04 1501.39,1009.24 1525.53,1005.77C1556.5,1001.31 1587.71,1006.45 1599.01,1009.47C1602.39,1010.38 1614.24,1003.2 1635.53,1005.63C1634.79,1003.98 1633.42,1001.32 1631.6,999.77C1624.4,993.614 1620.83,988.857 1596.89,984.781C1565.38,979.418 1540.1,992.885 1523.26,992.122C1520.5,991.996 1502.48,992.072 1488.88,985.519C1448.17,965.897 1418.29,951.841 1405.67,950.207C1399.32,949.384 1370.2,945.303 1344.28,946.416C1316.02,947.631 1292.28,954.323 1279.5,958.69C1269.83,963.908 1260.2,969.689 1251.41,975.94C1207.52,1007.15 1202.5,1091.12 1201.95,1106.42ZM1456.09,1755.51C1456.09,1755.51 1418.15,1749.03 1430.66,1748.16C1443.16,1747.31 1457.1,1738.79 1457.1,1738.79L1456.09,1755.51Z" style="fill:rgb(128,128,128);"/>
            </g>
        </g>
        <g transform="matrix(3.58067,0,0,3.58067,-5663.54,-3358.06)">
            <g transform="matrix(0.16458,0.00321788,-0.00314078,0.160636,1794.14,987.105)">
                <path d="M538.58,2164.58C538.58,2164.58 538.274,2224.04 536.703,2287.43C535.082,2352.87 531.727,2381.93 526.742,2435.21C524.21,2462.28 447.16,2507.01 447.16,2507.01L611.89,2441.89L629.201,2147.3L651.959,2144.16L626.018,2437.59L642.91,2428.83L676.963,2104.01L538.58,2164.58Z" style="fill:rgb(204,51,51);"/>
                <path d="M483.564,2101.25C498.479,2087.73 508.547,2070.49 580.689,2084.92C626.792,2094.14 627.058,2091.13 673.732,2083.83C647.272,2092.65 649.481,2098.24 622.041,2104.24C614.473,2105.89 569.541,2121.68 561.917,2119.2C560.164,2118.63 545.592,2107.9 539.064,2106.41C513.416,2100.59 509.546,2104.3 483.564,2101.25Z" style="fill:rgb(204,51,51);"/>
                <path d="M678.908,2142.86C679.47,2149.33 681.075,2164.66 681.638,2171.13C690.705,2170.7 720.948,2156.79 724.398,2197.1C727.758,2236.36 701.985,2254.71 678.75,2279.8C671.695,2287.41 669.116,2301.67 663.768,2308.47C670.398,2307.51 728.081,2290.14 745.765,2274.92C831.882,2200.76 781.836,2132.24 771.576,2113.19C761.692,2094.83 701.392,2135.51 678.908,2142.86Z" style="fill:rgb(204,51,51);"/>
                <path d="M668.021,2321.8C755.497,2296.81 764.08,2363.17 755.466,2385.57C740.904,2423.43 745.608,2467.92 722.244,2474.93C710.873,2478.34 700.871,2455.86 683.295,2454.69C631.216,2451.22 638.09,2462.38 606.072,2476.02C577.352,2488.26 508.393,2515.59 486.478,2521.61C455.893,2530.01 420.527,2536.35 420.527,2536.35C420.527,2536.35 450.618,2539.51 463.294,2537.72C504.745,2531.86 580.388,2490.52 616.852,2502.04C663.869,2516.89 634,2535.77 626.016,2545.19C651.283,2540.7 649.813,2537.3 672.985,2525.71C690.667,2516.87 767.499,2535.46 836.777,2431.16C892.869,2346.71 829.557,2284.63 798.363,2280.17C774.335,2276.74 760.117,2277.85 749.571,2283.4C742.814,2286.95 735.226,2295.24 726.698,2297.41C708.431,2302.06 701.593,2303.37 680.24,2309.2C677.421,2309.97 662.29,2310.66 660.729,2310.8C661.115,2322.38 667.521,2322.9 668.021,2321.8Z" style="fill:rgb(204,51,51);"/>
            </g>
        </g>
        <g transform="matrix(3.58067,0,0,3.58067,-5663.54,-3358.06)">
            <g transform="matrix(0.16458,0.00321788,-0.00314078,0.160636,1794.14,987.105)">
                <path d="M923.673,2466.56C943.085,2395.41 945.927,2273.19 953.472,2216.89C958.227,2181.41 960.422,2153.29 983.327,2139.35C992.67,2133.66 993.937,2112.74 1026.96,2119.09C1045.6,2122.68 1057.73,2132.97 1063.28,2174.01C1076.98,2151.34 1093.18,2131.15 1093.19,2095.35C1089.72,2094.64 1072.65,2089.82 1069.18,2089.11C1067.25,2088.71 952.285,2039.4 887.361,2219.75C872.575,2260.82 866.825,2413.82 837.008,2454.96C844.385,2454.18 870.4,2453.07 880.912,2453.04C887.571,2453.02 920.933,2469.3 923.673,2466.56Z" style="fill:rgb(204,51,51);"/>
                <path d="M1021.15,2130.92C997.758,2136.26 983.556,2138.22 979.734,2161.79C977.432,2175.99 974.551,2170.99 966.395,2217.88C955.387,2281.17 957.49,2294.15 955.171,2355.37C954.876,2363.17 940.008,2431.32 937.667,2435.74C935.949,2438.99 926.399,2457.91 918.514,2469.94C916.801,2472.56 915.802,2476.6 903.074,2483.87C874.927,2499.94 837.326,2501.64 823.045,2488.94C821.929,2487.95 817.079,2473.49 833.697,2470.97C863.02,2466.53 873.95,2468.38 909.708,2473.25C916.969,2461.09 922.489,2457.93 924.941,2445.98C875.846,2437.67 869.128,2438.35 852.465,2439.98C828.506,2442.31 824.573,2449.28 810.098,2466.52C787.661,2493.24 797.433,2513.64 800.203,2514.89C806.103,2517.58 853.485,2536.54 890.58,2521.02C923.766,2507.14 972.973,2493.65 982.097,2340.97C985.251,2288.2 985.66,2285.45 987.74,2232.42C989.099,2197.78 1017.83,2137.96 1021.15,2130.92Z" style="fill:rgb(204,51,51);"/>
                <path d="M967.049,2449.08C954.737,2468.15 936.691,2481.74 932.241,2490.59C948.71,2490.32 952.989,2498.03 974.663,2498.8C1044.7,2501.27 1079.05,2485.2 1093.78,2481.81C1096.58,2472.59 1109.34,2455.22 1115.31,2438.41C1122.28,2418.81 1127.68,2406.13 1126.26,2392.72C1104.03,2405.39 1105.14,2406.91 1081.74,2417.71C1028.7,2442.19 1011.38,2444.34 967.049,2449.08Z" style="fill:rgb(204,51,51);"/>
                <path d="M1013.73,2170.45C1019.43,2179.67 1025.61,2189.65 1025.66,2207.36C1025.71,2226.86 1023.31,2241.45 1017.26,2252.52C1009.35,2266.97 991.245,2281.94 986.034,2284.18C986.332,2285.42 985.34,2300.76 987.124,2306.97C1005.09,2298.93 1016.05,2300.82 1032.87,2260.19C1035.61,2253.55 1062.76,2181.11 1013.73,2170.45Z" style="fill:rgb(204,51,51);"/>
            </g>
        </g>
        <g transform="matrix(3.58067,0,0,3.58067,-5663.54,-3358.06)">
            <g transform="matrix(0.16458,0.00321788,-0.00314078,0.160636,1794.14,987.105)">
                <path d="M870.257,2277.21C870.257,2277.21 844.858,2272.58 833.783,2240.95C809.847,2172.61 836.567,2063.38 971.964,2047.75C999.112,2044.62 1062.22,2057.01 1117.54,2078.85C1222.6,2120.32 1267.43,2037.94 1300.52,2006.8C1260.45,2009.95 1270.9,2052.49 1149.78,2046.11C1142.79,2045.75 1147.4,2048.66 1069.56,2027.72C985.827,2005.19 909.335,2020.4 845.697,2070.28C816.554,2093.12 798.984,2157.23 798.668,2175.84C797.85,2224.12 798.53,2231.49 809.412,2253.76C821.902,2279.32 822.986,2288.38 868.464,2306.64C868.748,2304.66 869.212,2282.96 870.257,2277.21Z" style="fill:rgb(204,51,51);"/>
                <path d="M1190.71,2106.6C1184.17,2111.34 1141.32,2129.99 1111.88,2118.39C1103.06,2114.91 1107.27,2095.11 1095.28,2089.18C1071.91,2077.63 994.421,2066.47 972.16,2067.14C921.08,2068.67 883.901,2084.88 887.254,2083.12C887.826,2082.82 918.372,2058.48 966.166,2052.2C997.978,2048.03 1053.28,2060.81 1054.62,2061.35C1088.65,2074.96 1093.08,2075.69 1127.82,2088.05C1168.71,2102.61 1203.78,2091.61 1219.06,2087.35C1221.18,2086.76 1194.99,2102.77 1190.71,2106.6Z" style="fill:rgb(204,51,51);"/>
                <path d="M1309.3,2011.36C1321.44,1997.81 1297.67,2024.83 1288.3,2034.21C1287.18,2035.33 1287.58,2035.31 1275.45,2049.28C1276.19,2056.27 1277.06,2064.58 1264.02,2136.33C1256.89,2175.49 1259.26,2175.2 1258.33,2214.76C1260.74,2212.37 1270.09,2203.12 1294.79,2193.07C1281.14,2133.56 1290.29,2123.23 1291.15,2118.47C1292.71,2109.9 1310.33,2012.99 1311.15,2011.36" style="fill:rgb(204,51,51);"/>
                <path d="M1245.83,2088.55C1238.84,2092.04 1228.68,2092.01 1227.16,2092C1213.15,2134.53 1185.4,2159.37 1164.53,2201.12C1162.73,2204.72 1164.83,2204.22 1168.45,2206.39C1223.96,2128.12 1224.06,2128.23 1227.85,2120.8C1225.04,2153.84 1222.76,2153.25 1218.68,2185.89C1226.4,2184.87 1226.14,2185.33 1233.63,2184.42C1234.72,2169.53 1244.8,2088.56 1245.13,2088.89" style="fill:rgb(204,51,51);"/>
                <path d="M1135.74,2250.11C1130.99,2244.94 1130.86,2245.16 1124.31,2242.98C1122.29,2246.06 1034.84,2369.11 1004.98,2396.98C980.559,2419.77 982.435,2422.53 984.686,2424.03C1003.82,2436.79 1004.53,2426.52 1009.81,2420.49C1011.1,2419.02 1030.43,2401.88 1037.51,2392.15C1055.2,2367.82 1056.08,2368.71 1072.93,2343.84C1084.55,2326.69 1084.57,2326.95 1094.51,2308.73C1095.28,2307.32 1096.83,2308.54 1106.11,2292.3C1111.11,2283.55 1113.28,2285.25 1118.02,2276.2C1123.84,2265.1 1123.58,2265.17 1132.52,2256.23C1133.05,2255.7 1135.9,2252.85 1138.31,2248.83" style="fill:rgb(204,51,51);"/>
                <path d="M1228.68,2236.28C1217.74,2238.71 1219.61,2242.26 1209.4,2246.63C1202.62,2249.54 1190.69,2254.65 1130.7,2294.57C1124.01,2289.43 1123.89,2290.12 1116.58,2286.46C1121.2,2277.99 1120.67,2277.92 1126.19,2269.85C1131.28,2280.01 1141.76,2275.57 1142.98,2274.13C1153.9,2261.22 1193.24,2242.41 1202.97,2235.92C1221.39,2223.64 1223.83,2235.59 1225.83,2235.56" style="fill:rgb(204,51,51);"/>
                <path d="M1189.82,2236.44C1193.46,2238.87 1180.18,2234.54 1174.4,2230.21C1162.72,2221.45 1124.19,2191.33 1112.27,2199.85C1098.87,2209.42 1096.53,2206.3 1074.41,2228.42C1069.76,2233.07 1058.84,2240.8 1057.43,2241.8C1090.95,2274.4 1092.71,2274.99 1096.67,2276.33C1102.21,2267.59 1101.62,2267.55 1107.47,2259.24C1091.95,2251.8 1092.86,2250.66 1079.41,2240.2C1102.15,2224.1 1099.96,2215.4 1104.41,2219.85C1106.02,2221.46 1114.05,2229.49 1128.34,2235.2C1147.63,2242.93 1147.32,2243.2 1164.09,2255.11C1186.48,2236.17 1189.7,2241.34 1192.26,2238.78" style="fill:rgb(204,51,51);"/>
                <path d="M1211.18,2253.06C1208.95,2252.61 1207.09,2252.24 1185.68,2265.68C1204.6,2270.29 1203.01,2273.61 1220.47,2282.34C1225.52,2276.13 1225.89,2276.89 1236.72,2268.42C1227.59,2262.99 1216.06,2258.1 1210.11,2254.13" style="fill:rgb(204,51,51);"/>
                <path d="M1216.79,2192.53C1219.26,2193.12 1215.84,2193.41 1194.4,2215.1C1210.98,2218.3 1211.05,2217.8 1212.59,2219.24C1227.12,2232.8 1287.42,2250.7 1273.65,2255.29C1271.02,2256.17 1246.95,2264.19 1243.12,2271.84C1238.96,2280.16 1247.86,2273.97 1255.68,2278.78C1268.69,2265.77 1270.19,2267.94 1308.91,2248.12C1293.75,2238.52 1226.62,2204.58 1216.64,2194.6" style="fill:rgb(204,51,51);"/>
                <path d="M1213.12,2292.95C1211.96,2292.81 1210.12,2292.58 1199.34,2288.22C1198.59,2293.97 1192.2,2342.81 1188.77,2360.01C1177.82,2414.74 1173.47,2430.5 1159.01,2442.61C1173.65,2440.78 1184.05,2434.72 1197.4,2431.85C1196.12,2390.7 1219.31,2286.76 1214.99,2291.08" style="fill:rgb(204,51,51);"/>
                <path d="M1280.22,2270.82C1262.32,2283.03 1251.35,2285.97 1233.76,2298.02C1228.16,2393.04 1233.58,2419.62 1195.88,2443.18C1172.36,2457.88 1159.14,2445.53 1138.3,2494.74C1162.77,2470.9 1165.89,2475.72 1196.63,2461.16C1214.34,2452.78 1276.81,2488.75 1317.26,2456.67C1319.48,2454.91 1358.62,2423.87 1336,2426.7C1326.8,2427.85 1327.08,2433.1 1296.66,2437.56C1284.02,2439.42 1262.76,2442.47 1259.24,2431.38C1253.95,2414.7 1252.39,2385.31 1257.92,2352.14C1267.87,2292.46 1267.93,2312.43 1280.22,2270.82Z" style="fill:rgb(204,51,51);"/>
            </g>
        </g>
        <g transform="matrix(3.58067,0,0,3.58067,-5663.54,-3358.06)">
            <g transform="matrix(0.16458,0.00321788,-0.00314078,0.160636,1794.14,987.105)">
                <path d="M1462.67,2061.61C1461.5,2072.17 1461.68,2071.94 1461.08,2082.74C1449.25,2087.76 1444.17,2086.41 1423.65,2104.98C1411.36,2116.09 1406.36,2111.9 1401.18,2127.45C1399.97,2131.06 1395.19,2133.2 1386.99,2178.3C1374.32,2247.98 1356.3,2369.56 1476.38,2400.17C1523.22,2412.11 1545.59,2401.75 1576.12,2394.68C1558.28,2405.22 1548.42,2414.16 1531.66,2426.24C1514.07,2438.92 1483.75,2461.58 1463.85,2453.05C1455.06,2449.28 1411.76,2427.8 1411.03,2427.03C1403.8,2419.4 1355.68,2385.12 1348.61,2364.66C1337.56,2332.68 1326.39,2317.41 1345.58,2144.71C1346.79,2133.82 1350.77,2108.04 1351.95,2102.11C1374.88,2103.87 1388.96,2089.87 1415.04,2082.04C1419.16,2080.81 1417.57,2085.35 1461.88,2063.19" style="fill:rgb(204,51,51);"/>
                <path d="M1336.37,2115.77C1336.37,2115.77 1320.37,2127.31 1312.75,2132.68C1315.01,2166.12 1303.95,2170.57 1302.42,2237.2C1309.23,2242.2 1308.93,2242.14 1313.52,2245.14C1310.56,2250.58 1311.17,2250.64 1309.01,2256.41C1300.42,2258.16 1303.05,2267.98 1301.69,2288.32C1300.76,2302.32 1293.51,2411.11 1386.06,2441.96C1387.3,2442.38 1391.44,2446.09 1394.17,2447.12C1419.93,2456.89 1420.58,2452.07 1442.83,2453.78C1427.07,2444.85 1368.62,2441.72 1331.86,2355.59C1316.45,2319.47 1329.75,2219.85 1331.54,2171.53C1331.86,2162.83 1336.37,2115.77 1336.37,2115.77Z" style="fill:rgb(204,51,51);"/>
                <path d="M1455.15,2097.28C1451.83,2097.85 1448.16,2099.72 1436.99,2102.64C1438.02,2127.32 1432.02,2205.48 1428.4,2207.55C1425.57,2209.16 1408.83,2219.09 1402.66,2236.04C1391.88,2265.69 1387.98,2276.89 1404.19,2297.05C1404.14,2296.7 1397.42,2283.67 1414.45,2263.44C1421.43,2255.16 1420.26,2254.38 1429.19,2248.13C1429.61,2254.53 1432.24,2295.6 1430.06,2328.3C1428.5,2351.71 1424.72,2350.47 1415.97,2359.72C1418.24,2365.12 1419.22,2370.01 1421.74,2367.49C1432.99,2356.25 1444.43,2359.8 1446.37,2336.62C1448.91,2306.09 1454.06,2111.55 1455.15,2097.28Z" style="fill:rgb(204,51,51);"/>
                <path d="M1491.74,2074.84C1485.69,2073.64 1469.98,2087.31 1467.74,2089.55C1467.21,2090.08 1465.64,2309.39 1457.29,2330.27C1457.04,2330.91 1457.34,2330.82 1454.58,2338.4C1453.86,2340.37 1454.08,2340.08 1452.21,2352.41C1505.73,2300.52 1508.02,2275.34 1508.76,2267.19C1509.88,2254.92 1511.58,2236.22 1504.5,2113.24C1528.65,2129.08 1555.26,2158.23 1559.85,2161.15C1566.56,2165.42 1567.6,2166.06 1572.33,2203.2C1578.15,2187.13 1582.01,2158.49 1576.49,2155.34C1561.18,2146.59 1519.06,2094.36 1491.74,2074.84Z" style="fill:rgb(204,51,51);"/>
                <path d="M1524.12,2047.88C1525.61,2047.07 1507.43,2070.93 1505.58,2072.61C1510.52,2075.98 1508.19,2078.63 1561.4,2122.45C1592.36,2147.95 1593.18,2147 1596.47,2153.35C1608.2,2152.47 1603.52,2145.32 1614.03,2138.31C1624.38,2131.41 1622.19,2128.94 1633.11,2122.51C1603.54,2109.17 1570.78,2077.59 1524.12,2047.88Z" style="fill:rgb(204,51,51);"/>
                <path d="M1540.71,2153.16C1539.38,2203.73 1527.87,2347.85 1523.86,2401.27C1521.74,2401.13 1510.14,2401.78 1508.03,2401.64C1514.97,2367.15 1531.54,2143.29 1531.54,2143.29C1531.54,2143.29 1538.08,2147.3 1540.71,2153.16Z" style="fill:rgb(204,51,51);"/>
            </g>
        </g>
        <g transform="matrix(3.58067,0,0,3.58067,-5663.54,-3358.06)">
            <g transform="matrix(0.16458,0.00321788,-0.00314078,0.160636,1794.14,987.105)">
                <path d="M1674.36,2070.92C1657.48,2082.61 1649.65,2076.35 1651.96,2083.27C1660.05,2107.54 1642.39,2191.93 1640.45,2201.21C1632.04,2201.65 1614.42,2199.47 1595.25,2224.11C1561.6,2267.38 1577.15,2300.02 1577.77,2304.05C1580.06,2300.43 1597.14,2273.45 1622.69,2274.87C1641.54,2275.92 1632.02,2286.29 1634.58,2355.35C1635.81,2388.5 1631.78,2387.98 1628.58,2432.4C1637.82,2429.99 1637.3,2430.21 1646,2427.1C1649.81,2324.23 1655.39,2324.97 1662.48,2222.28C1666.96,2157.29 1677.8,2117.65 1673.91,2070.92" style="fill:rgb(204,51,51);"/>
            </g>
        </g>
        <g transform="matrix(3.58067,0,0,3.58067,-5663.54,-3358.06)">
            <g transform="matrix(0.16458,0.00321788,-0.00314078,0.160636,1794.14,987.105)">
                <path d="M1686.39,2078.72C1687.43,2074.2 1743.61,2037.25 1743.61,2037.25C1743.61,2037.25 1738.73,2052.48 1738.73,2160C1738.73,2228.19 1723.99,2325.6 1727.9,2384.19C1729.94,2414.83 1725.4,2411.69 1742.96,2446.81C1744.49,2449.88 1757.16,2475.04 1761.93,2482.65C1754.76,2479.27 1717.94,2443.31 1604.91,2455.75C1630.66,2451.25 1665.09,2433.68 1669.52,2401.99C1671.72,2386.27 1684.77,2104.06 1687.62,2080.53C1688.13,2076.32 1686.52,2077 1685.34,2073.21" style="fill:rgb(204,51,51);"/>
            </g>
        </g>
        <g transform="matrix(3.58067,0,0,3.58067,-5663.54,-3358.06)">
            <g transform="matrix(0.16458,0.00321788,-0.00314078,0.160636,1794.14,987.105)">
                <path d="M1799.98,2198.21C1785.14,2208.1 1774.48,2220.28 1772.55,2222.49C1750.3,2247.91 1743.66,2246.82 1748.27,2263.41C1755.06,2257.85 1753.84,2256.11 1762.11,2254.34C1775.84,2282.79 1776.64,2282.05 1788.74,2311.07C1808.06,2357.45 1850.34,2430.47 1856.19,2440.58C1849.09,2441.37 1849.34,2441.59 1842.19,2442.99C1807.86,2393.05 1787.47,2314.74 1754.56,2272.85C1749.74,2283.03 1750.58,2283.07 1745.57,2293.09C1809.4,2400.8 1834.18,2470.84 1834.38,2471.25C1857.31,2451.01 1875.79,2466.73 1900.7,2463.96C1907.11,2463.25 1983.85,2460.77 1985.24,2460.81C1957.28,2441.03 1950.05,2442.49 1939.38,2436.08C1920.65,2424.85 1813.33,2192.43 1801.78,2198.21" style="fill:rgb(204,51,51);"/>
            </g>
        </g>
        <g transform="matrix(3.58067,0,0,3.58067,-5663.54,-3358.06)">
            <g transform="matrix(0.16458,0.00321788,-0.00314078,0.160636,1794.14,987.105)">
                <path d="M1750.52,2383.05C1750.21,2389.6 1750.64,2399.92 1750.34,2406.47C1757.06,2408.45 1791.79,2419.39 1797.82,2479.66C1799.38,2495.29 1788.46,2529.35 1777.54,2537.29C1777.41,2537.39 1741.85,2572.57 1660.94,2569.46C1634.3,2568.43 1554.75,2547 1573.82,2514.06C1586.88,2491.51 1657.3,2488.72 1669.43,2496.19C1671.73,2497.6 1672.51,2494.83 1702.04,2504.68C1740.57,2517.52 1740.21,2518.41 1743.59,2519.42C1749.55,2521.21 1767.28,2527.68 1773.74,2528.36C1777.44,2517.27 1778.28,2518.01 1783.98,2508C1733.76,2479.72 1643.26,2467.98 1581.02,2478.78C1559.64,2482.49 1496.17,2544.89 1629.67,2581.97C1631.74,2582.54 1687.4,2589.25 1688.64,2589.56C1695.76,2591.34 1729.3,2587.98 1746.27,2578.84C1791.2,2554.65 1809.64,2541.79 1816.7,2516.79C1822.27,2497.1 1823.29,2468.46 1807.48,2430.52C1795.99,2402.95 1754.33,2381.14 1750.52,2383.05Z" style="fill:rgb(204,51,51);"/>
            </g>
        </g>
        <g transform="matrix(3.58067,0,0,3.58067,-5663.54,-3358.06)">
            <g transform="matrix(0.16458,0.00321788,-0.00314078,0.160636,1794.14,987.105)">
                <path d="M1824.3,2528.29C1828.38,2530.72 1817.8,2539.51 1812.01,2548.96C1840.1,2546.97 1838.03,2558.43 1895.7,2568.72C1897.45,2569.04 1939.03,2583.06 1966.34,2554.04C1972.88,2547.1 1979.3,2506.87 1946.89,2484.19C1954.89,2530.82 1924.34,2542.19 1907.21,2542.53C1855.11,2543.57 1831.94,2529.57 1824.3,2528.29Z" style="fill:rgb(204,51,51);"/>
            </g>
        </g>
        <g transform="matrix(3.58067,0,0,3.58067,-5663.54,-3358.06)">
            <g transform="matrix(0.16458,0.00321788,-0.00314078,0.160636,1794.14,987.105)">
                <path d="M1628.24,2345.16C1629.42,2358.57 1626.25,2365.7 1626.25,2365.7C1626.25,2365.7 1602.03,2352.45 1588.32,2350.16C1584.13,2349.46 1538.16,2339.05 1533.56,2336.63C1554.92,2330.52 1554.41,2335.63 1576.01,2341.03C1576.57,2341.17 1612.41,2346.77 1628.24,2345.16Z" style="fill:rgb(204,51,51);"/>
            </g>
        </g>
        <g transform="matrix(3.58067,0,0,3.58067,-5663.54,-3358.06)">
            <g transform="matrix(0.16458,0.00321788,-0.00314078,0.160636,1794.14,987.105)">
                <path d="M1629.13,2382.13C1630.12,2382.68 1630.54,2381.85 1630.49,2381.95C1627.75,2387.41 1629.8,2403.92 1621.67,2400.83C1603.11,2393.77 1560.83,2383.23 1533.63,2388.89C1534.57,2373.38 1532.81,2368.98 1534.08,2368.96C1558.33,2368.57 1560.34,2367.67 1594.92,2375.34C1627.33,2382.52 1634.2,2384.72 1632.06,2382.58" style="fill:rgb(204,51,51);"/>
            </g>
        </g>
        <g transform="matrix(3.58067,0,0,3.58067,-5663.54,-3358.06)">
            <g transform="matrix(0.16458,0.00321788,-0.00314078,0.160636,1794.14,987.105)">
                <path d="M1587.15,2538.93C1589.02,2537.55 1599.06,2530.18 1605.11,2516.08C1590.29,2522.98 1590.74,2523.54 1574.96,2524.61C1588.16,2540.36 1586.42,2536.75 1587.15,2538.93Z" style="fill:rgb(204,51,51);"/>
            </g>
        </g>
        <g transform="matrix(3.58067,0,0,3.58067,-5663.54,-3358.06)">
            <g transform="matrix(0.16458,0.00321788,-0.00314078,0.160636,1794.14,987.105)">
                <path d="M1541.99,2045.37C1542.57,2039.7 1561.39,2011.23 1581.13,1999.71C1615.25,1979.81 1650.81,1989.97 1656.65,1991.64C1805.65,2034.21 1787.73,2123.52 1787.73,2146.94C1791.74,2121.59 1805.15,2054.35 1724.91,1999.64C1720.16,1996.4 1672.81,1963.58 1619.72,1971.16C1544.82,1981.86 1528.77,2032.35 1525.85,2040.56C1526.7,2040.56 1538.45,2048.91 1541.99,2045.37Z" style="fill:rgb(204,51,51);"/>
            </g>
        </g>
        <g transform="matrix(3.58067,0,0,3.58067,-5663.54,-3358.06)">
            <g transform="matrix(0.16458,0.00321788,-0.00314078,0.160636,1794.14,987.105)">
                <path d="M1797.48,2080.28C1798.64,2089.53 1797.64,2089.38 1796.99,2098.55C1799.01,2097.85 1811.31,2093.62 1823.73,2100.31C1842.53,2110.43 1836.97,2133.84 1834.55,2143.14C1832.18,2152.28 1827.84,2164.95 1806.64,2194.33C1809.47,2195.19 1810.04,2194.01 1817.07,2200.22C1818.11,2199.18 1841.46,2173.38 1845.84,2170.54C1850.54,2167.48 1876.79,2140.69 1892.58,2134.62C1899.11,2132.11 1899.94,2125.31 1914.22,2119.19C1925.09,2114.53 1944.96,2116.85 1947.62,2117.16C1947.6,2116.88 1946.69,2110.95 1947.15,2097.78C1912.42,2100.93 1893.16,2088.35 1862.64,2084.88C1804.35,2078.26 1802.91,2075.08 1797.25,2080.74" style="fill:rgb(204,51,51);"/>
            </g>
        </g>
        <g transform="matrix(3.58067,0,0,3.58067,-5663.54,-3358.06)">
            <g transform="matrix(0.16458,0.00321788,-0.00314078,0.160636,1794.14,987.105)">
                <path d="M1796.61,2069.36C1796.82,2068.62 1815.04,2058.73 1819.31,2057.95C1829.05,2056.18 1867.06,2073.66 1867.75,2073.86C1951.73,2098.56 1955.51,2075.69 1968.22,2057.89C1917.01,2065.38 1889.98,2041.11 1854.99,2028.67C1818.12,2015.56 1794.27,2053 1796.61,2069.36Z" style="fill:rgb(204,51,51);"/>
            </g>
        </g>
        <g transform="matrix(3.58067,0,0,3.58067,-5663.54,-3358.06)">
            <g transform="matrix(0.16458,0.00321788,-0.00314078,0.160636,1794.14,987.105)">
                <path d="M1503.1,2370.06C1503.34,2370.13 1507.45,2370.51 1502.85,2386.68C1488.71,2383.03 1454.87,2390.95 1455.15,2388.05C1455.3,2386.53 1448.51,2379.55 1448.51,2379.55C1448.51,2379.55 1498.62,2370.51 1503.1,2370.06Z" style="fill:rgb(204,51,51);"/>
            </g>
        </g>
        <g transform="matrix(3.58067,0,0,3.58067,-5663.54,-3358.06)">
            <g transform="matrix(0.16458,0.00321788,-0.00314078,0.160636,1794.14,987.105)">
                <path d="M1405.86,2466.12C1405.86,2466.12 1390.95,2499.27 1415.52,2520.33C1437.53,2539.19 1510.07,2544.9 1545.07,2539.11L1543.88,2548.65C1547.06,2552.82 1550.23,2556.99 1553.4,2561.15C1542.99,2560.53 1439.61,2562.74 1412.84,2540.2C1410.89,2538.56 1367.92,2513.71 1389.56,2456.44C1403.83,2467.5 1405.86,2466.12 1405.86,2466.12Z" style="fill:rgb(204,51,51);"/>
            </g>
        </g>
        <g transform="matrix(3.58067,0,0,3.58067,-5663.54,-3358.06)">
            <g transform="matrix(0.164581,0,0,0.164581,1786.06,983.485)">
                <path d="M538.58,2164.58C538.58,2164.58 538.274,2224.04 536.703,2287.43C535.082,2352.87 531.727,2381.93 526.742,2435.21C524.21,2462.28 447.16,2507.01 447.16,2507.01L611.89,2441.89L629.201,2147.3L651.959,2144.16L626.018,2437.59L642.91,2428.83L676.963,2104.01L538.58,2164.58Z" style="fill:rgb(182,120,0);"/>
                <path d="M483.564,2101.25C498.479,2087.73 508.547,2070.49 580.689,2084.92C626.792,2094.14 627.058,2091.13 673.732,2083.83C647.272,2092.65 649.481,2098.24 622.041,2104.24C614.473,2105.89 569.541,2121.68 561.917,2119.2C560.164,2118.63 545.592,2107.9 539.064,2106.41C513.416,2100.59 509.546,2104.3 483.564,2101.25Z" style="fill:rgb(182,120,0);"/>
                <path d="M678.908,2142.86C679.47,2149.33 681.075,2164.66 681.638,2171.13C690.705,2170.7 720.948,2156.79 724.398,2197.1C727.758,2236.36 701.985,2254.71 678.75,2279.8C671.695,2287.41 669.116,2301.67 663.768,2308.47C670.398,2307.51 728.081,2290.14 745.765,2274.92C831.882,2200.76 781.836,2132.24 771.576,2113.19C761.692,2094.83 701.392,2135.51 678.908,2142.86Z" style="fill:rgb(182,120,0);"/>
                <path d="M668.021,2321.8C755.497,2296.81 764.08,2363.17 755.466,2385.57C740.904,2423.43 745.608,2467.92 722.244,2474.93C710.873,2478.34 700.871,2455.86 683.295,2454.69C631.216,2451.22 638.09,2462.38 606.072,2476.02C577.352,2488.26 508.393,2515.59 486.478,2521.61C455.893,2530.01 420.527,2536.35 420.527,2536.35C420.527,2536.35 450.618,2539.51 463.294,2537.72C504.745,2531.86 580.388,2490.52 616.852,2502.04C663.869,2516.89 634,2535.77 626.016,2545.19C651.283,2540.7 649.813,2537.3 672.985,2525.71C690.667,2516.87 808.906,2540.11 854.799,2348.73C862.717,2315.71 829.557,2284.63 798.363,2280.17C774.335,2276.74 760.117,2277.85 749.571,2283.4C742.814,2286.95 735.226,2295.24 726.698,2297.41C708.431,2302.06 701.593,2303.37 680.24,2309.2C677.421,2309.97 662.29,2310.66 660.729,2310.8C661.115,2322.38 667.521,2322.9 668.021,2321.8Z" style="fill:rgb(182,120,0);"/>
            </g>
        </g>
        <g transform="matrix(3.58067,0,0,3.58067,-5663.54,-3358.06)">
            <g transform="matrix(0.164581,0,0,0.164581,1786.06,983.485)">
                <path d="M923.828,2441.45C943.24,2370.29 945.927,2273.19 953.472,2216.89C958.227,2181.41 975.025,2111.27 1026.96,2119.09C1045.73,2121.92 1057.73,2132.97 1063.28,2174.01C1076.98,2151.34 1093.18,2131.15 1093.19,2095.35C1089.72,2094.64 1072.65,2089.82 1069.18,2089.11C1067.25,2088.71 952.285,2039.4 887.361,2219.75C872.575,2260.82 887.789,2262.85 870.452,2353.01C866.338,2374.4 856.715,2394.49 848.12,2432.31C855.498,2431.54 894.614,2427.26 923.828,2441.45Z" style="fill:rgb(182,120,0);"/>
                <path d="M1021.15,2130.92C1013.71,2132.62 980.829,2155.73 966.395,2217.88C951.863,2280.46 954.616,2385.7 946.338,2410.24C939.632,2430.13 926.399,2457.91 918.514,2469.94C916.801,2472.56 915.802,2476.6 903.074,2483.87C874.927,2499.94 837.326,2501.64 823.045,2488.94C821.929,2487.95 817.079,2473.49 833.697,2470.97C863.02,2466.53 873.95,2468.38 909.708,2473.25C916.969,2461.09 922.489,2457.93 924.941,2445.98C875.846,2437.67 869.148,2438.58 852.465,2439.98C819.164,2442.76 775.361,2500.46 800.203,2514.89C805.807,2518.15 863.047,2529.35 897.852,2509.21C993.004,2454.16 978.984,2362.58 980.076,2338.95C982.054,2296.14 976.198,2253.6 982.3,2222.65C993.606,2165.31 1018.99,2135.49 1021.15,2130.92Z" style="fill:rgb(182,120,0);"/>
                <path d="M967.049,2449.08C954.737,2468.15 936.691,2481.74 932.241,2490.59C948.71,2490.32 952.989,2498.03 974.663,2498.8C1044.7,2501.27 1079.05,2485.2 1093.78,2481.81C1096.58,2472.59 1109.34,2455.22 1115.31,2438.41C1122.28,2418.81 1127.68,2406.13 1126.26,2392.72C1104.03,2405.39 1105.14,2406.91 1081.74,2417.71C1028.7,2442.19 1011.38,2444.34 967.049,2449.08Z" style="fill:rgb(182,120,0);"/>
                <path d="M1013.73,2170.45C1019.43,2179.67 1023.75,2189.76 1025.66,2207.36C1031.92,2264.94 991.245,2281.94 986.034,2284.18C986.332,2285.42 985.362,2307.63 987.145,2313.84C1004.74,2299.49 1018.87,2294.75 1035.56,2260.25C1042.03,2246.86 1045.33,2180.24 1013.73,2170.45Z" style="fill:rgb(182,120,0);"/>
            </g>
        </g>
        <g transform="matrix(3.58067,0,0,3.58067,-5663.54,-3358.06)">
            <g transform="matrix(0.164581,0,0,0.164581,1786.06,983.485)">
                <path d="M870.257,2277.21C870.257,2277.21 844.858,2272.58 833.783,2240.95C809.847,2172.61 836.567,2063.38 971.964,2047.75C999.112,2044.62 1062.22,2057.01 1117.54,2078.85C1222.6,2120.32 1267.43,2037.94 1300.52,2006.8C1260.45,2009.95 1270.9,2052.49 1149.78,2046.11C1142.79,2045.75 1147.4,2048.66 1069.56,2027.72C985.827,2005.19 909.335,2020.4 845.697,2070.28C816.554,2093.12 798.984,2157.23 798.668,2175.84C797.85,2224.12 798.53,2231.49 809.412,2253.76C821.902,2279.32 822.986,2288.38 868.464,2306.64C868.748,2304.66 869.212,2282.96 870.257,2277.21Z" style="fill:rgb(182,120,0);"/>
                <path d="M1219.06,2087.35C1221.18,2086.76 1160.45,2139.2 1111.88,2118.39C1103.17,2114.65 1122.21,2100.56 1095.28,2089.18C1071.26,2079.04 1010.81,2061.01 970.708,2062.04C919.622,2063.36 863.74,2101.81 875.437,2090.72C875.906,2090.28 918.372,2058.48 966.166,2052.2C997.978,2048.03 1092.89,2077.43 1127.63,2089.8C1168.52,2104.35 1203.78,2091.61 1219.06,2087.35Z" style="fill:rgb(182,120,0);"/>
                <path d="M1311.15,2011.36C1322.52,1997.81 1287.58,2035.31 1275.45,2049.28C1275.53,2064.26 1277.06,2064.58 1264.02,2136.33C1256.89,2175.49 1259.26,2175.2 1258.33,2214.76C1260.74,2212.37 1270.09,2203.12 1294.79,2193.07C1281.14,2133.56 1310.33,2012.99 1311.15,2011.36Z" style="fill:rgb(182,120,0);"/>
                <path d="M1245.93,2088.47L1229.99,2092.82L1155.97,2200.9C1155.97,2200.9 1164.83,2204.22 1168.45,2206.39C1224.46,2128.95 1225.37,2127.98 1229.16,2120.55C1225.02,2154.28 1222.68,2190.91 1222.68,2190.91L1235.91,2198.89L1245.93,2088.47Z" style="fill:rgb(182,120,0);"/>
                <path d="M1135.61,2251.37C1135.61,2251.37 1129.6,2246.82 1124.31,2242.98C1122.29,2246.06 1034.84,2369.11 1004.98,2396.98C980.559,2419.77 982.435,2422.53 984.686,2424.03C990.383,2427.83 994.918,2431.84 1001.23,2429.11C1016.11,2422.67 1032.54,2398.98 1037.51,2392.15C1055.2,2367.82 1056.08,2368.71 1072.93,2343.84C1084.55,2326.69 1135.61,2251.37 1135.61,2251.37Z" style="fill:rgb(182,120,0);"/>
                <path d="M1230.33,2234.49C1218.15,2240.07 1192.05,2256.33 1130.7,2294.57C1124.6,2289.84 1124.38,2290.47 1116.58,2286.46C1122.35,2278.54 1122.76,2278.09 1128.28,2270.01C1129.64,2272.73 1134.64,2277.89 1141.41,2273.97C1159.51,2263.47 1215.93,2228.3 1215.93,2228.3C1215.93,2228.3 1228.26,2234.31 1230.33,2234.49Z" style="fill:rgb(182,120,0);"/>
                <path d="M1192.27,2236.75C1194.9,2238.22 1122.08,2187.16 1110.15,2195.68C1096.75,2205.25 1097.56,2207.25 1074.41,2228.42C1069.56,2232.86 1058.84,2240.8 1057.43,2241.8C1086.85,2266.53 1091.76,2271.2 1096.53,2275.6C1102.07,2266.86 1101.62,2267.55 1107.47,2259.24C1093.36,2250.77 1094.65,2250.87 1081.21,2240.41C1102,2222.51 1104.41,2219.85 1104.41,2219.85C1104.41,2219.85 1147.32,2243.2 1164.09,2255.11C1186.48,2236.17 1189.71,2239.31 1192.27,2236.75Z" style="fill:rgb(182,120,0);"/>
                <path d="M1211.18,2253.06C1210.32,2252.37 1203.82,2256.4 1185.68,2265.68C1200.19,2271.91 1200.5,2274.28 1217.96,2283.01C1223.01,2276.79 1225.89,2276.89 1236.72,2268.42C1227.59,2262.99 1216.69,2257.47 1211.18,2253.06Z" style="fill:rgb(182,120,0);"/>
                <path d="M1216.79,2192.53C1219.26,2193.12 1215.84,2193.41 1194.4,2215.1C1210.98,2218.3 1287.42,2250.7 1273.65,2255.29C1271.02,2256.17 1221.43,2284.25 1221.43,2284.25C1221.43,2284.25 1239.3,2283.26 1251.96,2282.58C1264.97,2269.57 1270.19,2267.94 1308.91,2248.12C1293.75,2238.52 1226.71,2203.37 1216.79,2192.53Z" style="fill:rgb(182,120,0);"/>
                <path d="M1216.76,2289.04C1216.76,2289.04 1209.13,2290.56 1199.34,2288.22C1198.59,2293.97 1192.2,2342.81 1188.77,2360.01C1177.82,2414.74 1178.93,2422.49 1164.47,2434.6C1180.99,2431.73 1183.23,2427.47 1196.59,2424.6C1196.28,2382.36 1216.76,2289.04 1216.76,2289.04Z" style="fill:rgb(182,120,0);"/>
                <path d="M1279.47,2273.34C1261.57,2285.55 1251.35,2285.97 1233.76,2298.02C1228.16,2393.04 1233.58,2419.62 1195.88,2443.18C1172.36,2457.88 1159.14,2445.53 1138.3,2494.74C1162.77,2470.9 1165.89,2475.72 1196.63,2461.16C1214.34,2452.78 1276.81,2488.75 1317.26,2456.67C1319.48,2454.91 1358.62,2423.87 1336,2426.7C1326.8,2427.85 1262.76,2442.47 1259.24,2431.38C1253.95,2414.7 1252.39,2385.31 1257.92,2352.14C1267.87,2292.46 1265.6,2312.41 1279.47,2273.34Z" style="fill:rgb(182,120,0);"/>
            </g>
        </g>
        <g transform="matrix(3.58067,0,0,3.58067,-5663.54,-3358.06)">
            <g transform="matrix(0.164581,0,0,0.164581,1786.06,983.485)">
                <path d="M1462.67,2061.61C1461.5,2072.17 1461.68,2071.94 1461.08,2082.74C1449.25,2087.76 1406.36,2111.9 1401.18,2127.45C1399.97,2131.06 1395.19,2133.2 1386.99,2178.3C1374.32,2247.98 1356.3,2369.56 1476.38,2400.17C1523.22,2412.11 1545.59,2401.75 1576.12,2394.68C1558.28,2405.22 1548.42,2414.16 1531.66,2426.24C1514.07,2438.92 1483.71,2461.66 1463.85,2453.05C1387.86,2420.08 1363.77,2392.32 1351.22,2364.62C1337.25,2333.8 1326.39,2317.41 1345.58,2144.71C1346.79,2133.82 1350.77,2108.04 1351.95,2102.11C1379.64,2091.3 1418.04,2084.42 1462.67,2061.61Z" style="fill:rgb(182,120,0);"/>
                <path d="M1336.37,2115.77C1336.37,2115.77 1319.36,2128.58 1311.74,2133.95C1308.72,2169.1 1303.11,2202.05 1302.42,2237.2C1309.23,2242.2 1312.2,2245.48 1316.8,2248.48C1313.84,2253.92 1304.81,2255.46 1302.64,2261.24C1302.04,2272.2 1302.17,2275.65 1301.69,2288.32C1301.24,2300.44 1295.45,2383.44 1353.77,2425.61C1362.88,2432.2 1391.44,2446.09 1394.17,2447.12C1419.93,2456.89 1420.58,2452.07 1442.83,2453.78C1427.07,2444.85 1401.65,2436.62 1384.18,2423.13C1357.98,2402.9 1335.14,2374.28 1329.24,2341.32C1319.97,2289.5 1329.75,2219.85 1331.54,2171.53C1331.86,2162.83 1336.37,2115.77 1336.37,2115.77Z" style="fill:rgb(182,120,0);"/>
                <path d="M1455.15,2097.28C1451.83,2097.85 1448.16,2099.72 1436.99,2102.64C1438.02,2127.32 1432.02,2205.48 1428.4,2207.55C1425.57,2209.16 1408.83,2219.09 1402.66,2236.04C1391.88,2265.69 1387.98,2276.89 1404.19,2297.05C1404.14,2296.7 1397.42,2283.67 1414.45,2263.44C1421.43,2255.16 1420.26,2254.38 1429.19,2248.13C1429.61,2254.53 1432.24,2295.6 1430.06,2328.3C1428.5,2351.71 1424.72,2350.47 1415.97,2359.72C1418.24,2365.12 1421.74,2367.49 1421.74,2367.49C1421.74,2367.49 1444.43,2359.8 1446.37,2336.62C1448.91,2306.09 1454.06,2111.55 1455.15,2097.28Z" style="fill:rgb(182,120,0);"/>
                <path d="M1491.74,2074.84C1485.69,2073.64 1469.98,2087.31 1467.74,2089.55C1467.21,2090.08 1465.64,2309.39 1457.29,2330.27C1457.04,2330.91 1457.34,2330.82 1454.58,2338.4C1453.86,2340.37 1454.08,2340.08 1452.21,2352.41C1505.73,2300.52 1508.02,2275.34 1508.76,2267.19C1509.88,2254.92 1511.58,2236.22 1504.5,2113.24C1528.65,2129.08 1554.91,2154.51 1559.85,2161.15C1565.81,2169.16 1567.6,2166.06 1572.33,2203.2C1578.15,2187.13 1580.78,2160.03 1576.49,2155.34C1562.93,2140.55 1519.06,2094.36 1491.74,2074.84Z" style="fill:rgb(182,120,0);"/>
                <path d="M1524.12,2047.88C1525.61,2047.07 1507.43,2070.93 1505.58,2072.61C1510.52,2075.98 1508.19,2078.63 1561.4,2122.45C1592.36,2147.95 1593.18,2147 1596.47,2153.35C1608.2,2152.47 1622.19,2128.94 1633.11,2122.51C1603.54,2109.17 1569.14,2081.51 1524.12,2047.88Z" style="fill:rgb(182,120,0);"/>
                <path d="M1540.71,2153.16C1539.38,2203.73 1527.87,2347.85 1523.86,2401.27C1521.74,2401.13 1510.14,2401.78 1508.03,2401.64C1514.97,2367.15 1531.54,2143.29 1531.54,2143.29C1531.54,2143.29 1538.08,2147.3 1540.71,2153.16Z" style="fill:rgb(182,120,0);"/>
            </g>
        </g>
        <g transform="matrix(3.58067,0,0,3.58067,-5663.54,-3358.06)">
            <g transform="matrix(0.164581,0,0,0.164581,1786.06,983.485)">
                <path d="M1674.36,2070.92C1657.48,2082.61 1649.65,2076.35 1651.96,2083.27C1660.05,2107.54 1642.39,2191.93 1640.45,2201.21C1632.04,2201.65 1614.42,2199.47 1595.25,2224.11C1561.6,2267.38 1577.15,2300.02 1577.77,2304.05C1580.06,2300.43 1597.14,2273.45 1622.69,2274.87C1641.54,2275.92 1632.02,2286.29 1634.58,2355.35C1635.81,2388.5 1631.78,2387.98 1628.58,2432.4C1637.73,2429.73 1637.16,2429.81 1646,2427.1C1649.81,2324.23 1655.39,2324.97 1662.48,2222.28C1666.96,2157.29 1677.8,2117.65 1673.91,2070.92" style="fill:rgb(182,120,0);"/>
            </g>
        </g>
        <g transform="matrix(3.58067,0,0,3.58067,-5663.54,-3358.06)">
            <g transform="matrix(0.164581,0,0,0.164581,1786.06,983.485)">
                <path d="M1686.39,2078.72C1687.43,2074.2 1743.61,2037.25 1743.61,2037.25C1743.61,2037.25 1716.61,2339.53 1728.88,2421.31C1730.45,2431.76 1757.16,2475.04 1761.93,2482.65C1754.76,2479.27 1717.94,2443.31 1604.91,2455.75C1630.66,2451.25 1665.09,2433.68 1669.52,2401.99C1671.72,2386.27 1684.77,2104.06 1687.62,2080.53C1688.13,2076.32 1686.52,2077 1685.34,2073.21" style="fill:rgb(182,120,0);"/>
            </g>
        </g>
        <g transform="matrix(3.58067,0,0,3.58067,-5663.54,-3358.06)">
            <g transform="matrix(0.164581,0,0,0.164581,1786.06,983.485)">
                <path d="M1799.98,2198.21C1785.14,2208.1 1774.48,2220.28 1772.55,2222.49C1750.3,2247.91 1743.66,2246.82 1748.27,2263.41C1755.06,2257.85 1753.84,2256.11 1762.11,2254.34C1775.84,2282.79 1776.64,2282.05 1788.74,2311.07C1808.06,2357.45 1850.34,2430.47 1856.19,2440.58C1849.09,2441.37 1849.34,2441.59 1842.19,2442.99C1807.86,2393.05 1787.47,2314.74 1754.56,2272.85C1749.74,2283.03 1750.58,2283.07 1745.57,2293.09C1809.4,2400.8 1834.18,2470.84 1834.38,2471.25C1857.31,2451.01 1875.79,2466.73 1900.7,2463.96C1907.11,2463.25 1983.85,2460.77 1985.24,2460.81C1957.28,2441.03 1950.05,2442.49 1939.38,2436.08C1920.65,2424.85 1813.33,2192.43 1801.78,2198.21" style="fill:rgb(182,120,0);"/>
            </g>
        </g>
        <g transform="matrix(3.58067,0,0,3.58067,-5663.54,-3358.06)">
            <g transform="matrix(0.164581,0,0,0.164581,1786.06,983.485)">
                <path d="M1750.52,2383.05C1750.21,2389.6 1750.64,2399.92 1750.34,2406.47C1757.06,2408.45 1791.79,2419.39 1797.82,2479.66C1799.38,2495.29 1788.46,2529.35 1777.54,2537.29C1777.41,2537.39 1741.85,2572.57 1660.94,2569.46C1634.3,2568.43 1554.75,2547 1573.82,2514.06C1586.88,2491.51 1666.29,2490.68 1742.05,2515.16C1747.96,2517.07 1767.28,2527.68 1773.74,2528.36C1777.44,2517.27 1778.28,2518.01 1783.98,2508C1733.76,2479.72 1643.26,2467.98 1581.02,2478.78C1559.64,2482.49 1503.07,2555.04 1634.89,2597.69C1667.57,2608.26 1732.75,2602.66 1749.72,2593.52C1794.65,2569.33 1809.64,2541.79 1816.7,2516.79C1822.27,2497.1 1823.29,2468.46 1807.48,2430.52C1795.99,2402.95 1754.33,2381.14 1750.52,2383.05Z" style="fill:rgb(182,120,0);"/>
            </g>
        </g>
        <g transform="matrix(3.58067,0,0,3.58067,-5663.54,-3358.06)">
            <g transform="matrix(0.164581,0,0,0.164581,1786.06,983.485)">
                <path d="M1824.3,2528.29C1821.2,2535.75 1817.8,2539.51 1812.01,2548.96C1840.1,2546.97 1838.03,2558.43 1895.7,2568.72C1897.45,2569.04 1939.03,2583.06 1966.34,2554.04C1972.88,2547.1 1979.3,2506.87 1946.89,2484.19C1954.89,2530.82 1924.34,2542.19 1907.21,2542.53C1855.11,2543.57 1831.94,2529.57 1824.3,2528.29Z" style="fill:rgb(182,120,0);"/>
            </g>
        </g>
        <g transform="matrix(3.58067,0,0,3.58067,-5663.54,-3358.06)">
            <g transform="matrix(0.164581,0,0,0.164581,1786.06,983.485)">
                <path d="M1629.23,2345.12C1631.42,2358.26 1625.62,2364.13 1625.62,2364.13C1625.62,2364.13 1601.54,2354.6 1588.32,2350.16C1574.05,2345.37 1538.16,2339.05 1533.56,2336.63C1554.92,2330.52 1555.07,2334.38 1576.67,2339.77C1577.23,2339.91 1613.39,2346.75 1629.23,2345.12Z" style="fill:rgb(182,120,0);"/>
            </g>
        </g>
        <g transform="matrix(3.58067,0,0,3.58067,-5663.54,-3358.06)">
            <g transform="matrix(0.164581,0,0,0.164581,1786.06,983.485)">
                <path d="M1629.13,2382.13C1630.12,2382.68 1630.54,2381.85 1630.49,2381.95C1627.75,2387.41 1629.8,2403.92 1621.67,2400.83C1603.11,2393.77 1560.83,2383.23 1533.63,2388.89C1534.57,2373.38 1532.81,2368.98 1534.08,2368.96C1558.33,2368.57 1560.34,2367.67 1594.92,2375.34C1627.33,2382.52 1634.2,2384.72 1632.06,2382.58" style="fill:rgb(182,120,0);"/>
            </g>
        </g>
        <g transform="matrix(3.58067,0,0,3.58067,-5663.54,-3358.06)">
            <g transform="matrix(0.164581,0,0,0.164581,1786.06,983.485)">
                <path d="M1587.15,2538.93C1589.02,2537.55 1599.06,2530.18 1605.11,2516.08C1591.27,2522.08 1590.74,2523.54 1574.96,2524.61C1588.16,2540.36 1586.42,2536.75 1587.15,2538.93Z" style="fill:rgb(182,120,0);"/>
            </g>
        </g>
        <g transform="matrix(3.58067,0,0,3.58067,-5663.54,-3358.06)">
            <g transform="matrix(0.164581,0,0,0.164581,1786.06,983.485)">
                <path d="M1541.99,2045.37C1542.57,2039.7 1561.39,2011.23 1581.13,1999.71C1615.25,1979.81 1650.81,1989.97 1656.65,1991.64C1805.65,2034.21 1787.73,2123.52 1787.73,2146.94C1791.74,2121.59 1805.15,2054.35 1724.91,1999.64C1720.16,1996.4 1672.81,1963.58 1619.72,1971.16C1544.82,1981.86 1528.77,2032.35 1525.85,2040.56C1526.7,2040.56 1538.45,2048.91 1541.99,2045.37Z" style="fill:rgb(182,120,0);"/>
            </g>
        </g>
        <g transform="matrix(3.58067,0,0,3.58067,-5663.54,-3358.06)">
            <g transform="matrix(0.164581,0,0,0.164581,1786.06,983.485)">
                <path d="M1797.48,2080.28C1798.64,2089.53 1797.64,2089.38 1796.99,2098.55C1799.01,2097.85 1811.31,2093.62 1823.73,2100.31C1842.53,2110.43 1836.97,2133.84 1834.55,2143.14C1832.18,2152.28 1827.84,2164.95 1806.64,2194.33C1809.47,2195.19 1810.04,2194.01 1817.07,2200.22C1818.11,2199.18 1841.67,2173.68 1845.84,2170.54C1858.05,2161.3 1899.94,2125.31 1914.22,2119.19C1925.09,2114.53 1944.96,2116.85 1947.62,2117.16C1947.6,2116.88 1946.69,2110.95 1947.15,2097.78C1912.42,2100.93 1803.05,2074.81 1797.48,2080.28Z" style="fill:rgb(182,120,0);"/>
            </g>
        </g>
        <g transform="matrix(3.58067,0,0,3.58067,-5663.54,-3358.06)">
            <g transform="matrix(0.164581,0,0,0.164581,1786.06,983.485)">
                <path d="M1796.61,2069.36C1796.82,2068.62 1815.04,2058.73 1819.31,2057.95C1829.05,2056.18 1867.06,2073.66 1867.75,2073.86C1951.73,2098.56 1955.51,2075.69 1968.22,2057.89C1917.01,2065.38 1889.98,2041.11 1854.99,2028.67C1818.12,2015.56 1794.27,2053 1796.61,2069.36Z" style="fill:rgb(182,120,0);"/>
            </g>
        </g>
        <g transform="matrix(3.58067,0,0,3.58067,-5663.54,-3358.06)">
            <g transform="matrix(0.164581,0,0,0.164581,1786.06,983.485)">
                <path d="M1503.1,2370.06C1503.34,2370.13 1507.45,2370.51 1502.85,2386.68C1488.71,2383.03 1454.87,2390.95 1455.15,2388.05C1455.3,2386.53 1448.51,2379.55 1448.51,2379.55C1448.51,2379.55 1498.62,2370.51 1503.1,2370.06Z" style="fill:rgb(182,120,0);"/>
            </g>
        </g>
        <g transform="matrix(3.58067,0,0,3.58067,-5663.54,-3358.06)">
            <g transform="matrix(0.164581,0,0,0.164581,1786.06,983.485)">
                <path d="M1402.8,2461.52C1402.8,2461.52 1390.95,2499.27 1415.52,2520.33C1437.53,2539.19 1510.07,2544.9 1545.07,2539.11C1545.07,2539.11 1542.47,2547.42 1555.35,2559.27C1544.94,2558.64 1439.61,2562.74 1412.84,2540.2C1410.89,2538.56 1367.92,2513.71 1389.56,2456.44C1398.06,2460.51 1402.8,2461.52 1402.8,2461.52Z" style="fill:rgb(182,120,0);"/>
            </g>
        </g>
        <g transform="matrix(3.58067,0,0,3.58067,-5663.54,-3358.06)">
            <g transform="matrix(0.279278,0,0,0.279278,1511.63,872.689)">
                <g transform="matrix(58.3333,0,0,58.3333,1820.49,1943.69)">
                </g>
                <text x="1554.72px" y="1943.69px" style="font-family:'ArialMT', 'Arial', sans-serif;font-size:58.333px;fill:rgb(182,120,0);">AMERICA</text>
            </g>
        </g>
    </g>
</svg>
